<svg width="150" height="81" viewBox="0 0 150 81" fill="none" xmlns="http://www.w3.org/2000/svg">
<g clip-path="url(#clip0)">
<rect width="150" height="81" fill="white"/>
<path opacity="0.1" d="M150 51.9907C150.002 54.1911 149.699 56.3812 149.102 58.4988C148.524 60.5403 147.674 62.4945 146.575 64.3089C146.575 70.8826 142.141 76.5641 135.704 79.2671C133.014 80.3852 130.129 80.9562 127.217 80.9466H28.4751C23.1975 80.9466 18.3068 79.5217 14.2959 77.0942C13.148 76.4027 12.0591 75.6176 11.0402 74.7468C6.58216 70.9128 3.81818 65.6145 3.81818 59.7624C1.31619 55.907 -0.0104818 51.4062 6.0552e-07 46.8091C6.0552e-07 37.1834 5.68925 28.9065 13.8396 25.2522C14.9219 24.7672 16.0402 24.3671 17.1844 24.0556C17.5892 23.9454 17.9982 23.8465 18.4117 23.759C19.5139 23.5242 20.6319 23.3707 21.7565 23.2998C22.163 23.2744 22.5717 23.26 22.9825 23.2565H23.208C23.6617 23.2565 24.1114 23.2722 24.5586 23.2985L24.7054 23.0492C24.8855 22.7483 25.0699 22.4504 25.2587 22.1556C25.5996 21.6185 25.9572 21.0893 26.3313 20.568C26.7229 20.0177 27.1315 19.4763 27.5572 18.9436L27.6661 18.8123C27.9073 18.5114 28.1538 18.214 28.4056 17.9201C29.1923 17.0025 30.0227 16.1124 30.8968 15.2499C40.3518 5.97584 55.1643 0.00567627 71.8164 0.00567627C84.7736 0.00567627 96.6175 3.62058 105.69 9.59336C109.126 7.64703 113.009 6.62577 116.958 6.62927C129.774 6.62927 140.166 17.1748 140.166 30.1832C140.164 31.0063 140.12 31.8287 140.035 32.6474C143.124 34.8357 145.642 37.7355 147.376 41.102C149.111 44.4686 150.011 48.2031 150 51.9907Z" fill="#1E91C3"/>
<path opacity="0.2" d="M30.8995 15.2443V17.9144H28.4082C29.1888 16.9977 30.0192 16.1076 30.8995 15.2443Z" fill="#1E91C3"/>
<path opacity="0.2" d="M35.4716 14.5672H32.1267V17.9144H35.4716V14.5672Z" fill="#1E91C3"/>
<path opacity="0.2" d="M40.0424 14.5672H36.6975V17.9144H40.0424V14.5672Z" fill="#1E91C3"/>
<path opacity="0.2" d="M44.6145 14.5672H41.2697V17.9144H44.6145V14.5672Z" fill="#1E91C3"/>
<path opacity="0.2" d="M49.1853 14.5672H45.8405V17.9144H49.1853V14.5672Z" fill="#1E91C3"/>
<path opacity="0.2" d="M53.7574 14.5672H50.4126V17.9144H53.7574V14.5672Z" fill="#1E91C3"/>
<path d="M58.3296 14.5672H54.9847V17.9144H58.3296V14.5672Z" fill="#1E91C3"/>
<path opacity="0.2" d="M62.9004 14.5672H59.5555V17.9144H62.9004V14.5672Z" fill="#1E91C3"/>
<path opacity="0.2" d="M67.4725 14.5672H64.1277V17.9144H67.4725V14.5672Z" fill="#1E91C3"/>
<path opacity="0.2" d="M72.0433 14.5672H68.6984V17.9144H72.0433V14.5672Z" fill="#1E91C3"/>
<path d="M76.6154 14.5672H73.2705V17.9144H76.6154V14.5672Z" fill="#1E91C3"/>
<path opacity="0.2" d="M81.1875 14.5672H77.8427V17.9144H81.1875V14.5672Z" fill="#1E91C3"/>
<path opacity="0.2" d="M85.7583 14.5672H82.4135V17.9144H85.7583V14.5672Z" fill="#1E91C3"/>
<path opacity="0.2" d="M90.3304 14.5672H86.9856V17.9144H90.3304V14.5672Z" fill="#1E91C3"/>
<path opacity="0.2" d="M94.9025 14.5672H91.5577V17.9144H94.9025V14.5672Z" fill="#1E91C3"/>
<path opacity="0.2" d="M99.4734 14.5672H96.1284V17.9144H99.4734V14.5672Z" fill="#1E91C3"/>
<path opacity="0.2" d="M104.045 14.5672H100.701V17.9144H104.045V14.5672Z" fill="#1E91C3"/>
<path d="M108.616 14.5672H105.271V17.9144H108.616V14.5672Z" fill="#1E91C3"/>
<path d="M113.188 14.5672H109.844V17.9144H113.188V14.5672Z" fill="#1E91C3"/>
<path opacity="0.2" d="M117.76 14.5672H114.416V17.9144H117.76V14.5672Z" fill="#1E91C3"/>
<path opacity="0.2" d="M122.331 14.5672H118.986V17.9144H122.331V14.5672Z" fill="#1E91C3"/>
<path d="M126.903 14.5672H123.559V17.9144H126.903V14.5672Z" fill="#1E91C3"/>
<path d="M131.474 14.5672H128.129V17.9144H131.474V14.5672Z" fill="#1E91C3"/>
<path d="M26.3287 20.5662V22.1539H25.2561C25.597 21.6133 25.9545 21.0841 26.3287 20.5662Z" fill="#1E91C3"/>
<path opacity="0.2" d="M30.8995 18.8066H27.5546V22.1539H30.8995V18.8066Z" fill="#1E91C3"/>
<path d="M35.4716 18.8066H32.1267V22.1539H35.4716V18.8066Z" fill="#1E91C3"/>
<path opacity="0.2" d="M40.0424 18.8066H36.6975V22.1539H40.0424V18.8066Z" fill="#1E91C3"/>
<path opacity="0.7" d="M44.6145 18.8066H41.2697V22.1539H44.6145V18.8066Z" fill="#1E91C3"/>
<path opacity="0.2" d="M49.1853 18.8066H45.8405V22.1539H49.1853V18.8066Z" fill="#1E91C3"/>
<path opacity="0.4" d="M53.7574 18.8066H50.4126V22.1539H53.7574V18.8066Z" fill="#1E91C3"/>
<path d="M58.3296 18.8066H54.9847V22.1539H58.3296V18.8066Z" fill="#1E91C3"/>
<path opacity="0.4" d="M62.9004 18.8066H59.5555V22.1539H62.9004V18.8066Z" fill="#1E91C3"/>
<path opacity="0.2" d="M67.4725 18.8066H64.1277V22.1539H67.4725V18.8066Z" fill="#1E91C3"/>
<path opacity="0.4" d="M72.0433 18.8066H68.6984V22.1539H72.0433V18.8066Z" fill="#1E91C3"/>
<path d="M76.6154 18.8066H73.2705V22.1539H76.6154V18.8066Z" fill="#1E91C3"/>
<path opacity="0.4" d="M81.1875 18.8066H77.8427V22.1539H81.1875V18.8066Z" fill="#1E91C3"/>
<path opacity="0.4" d="M85.7583 18.8066H82.4135V22.1539H85.7583V18.8066Z" fill="#1E91C3"/>
<path opacity="0.2" d="M90.3304 18.8066H86.9856V22.1539H90.3304V18.8066Z" fill="#1E91C3"/>
<path opacity="0.4" d="M94.9025 18.8066H91.5577V22.1539H94.9025V18.8066Z" fill="#1E91C3"/>
<path opacity="0.4" d="M99.4734 18.8066H96.1284V22.1539H99.4734V18.8066Z" fill="#1E91C3"/>
<path opacity="0.2" d="M104.045 18.8066H100.701V22.1539H104.045V18.8066Z" fill="#1E91C3"/>
<path opacity="0.2" d="M108.616 18.8066H105.271V22.1539H108.616V18.8066Z" fill="#1E91C3"/>
<path opacity="0.4" d="M113.188 18.8066H109.844V22.1539H113.188V18.8066Z" fill="#1E91C3"/>
<path opacity="0.2" d="M117.76 18.8066H114.416V22.1539H117.76V18.8066Z" fill="#1E91C3"/>
<path d="M122.331 18.8066H118.986V22.1539H122.331V18.8066Z" fill="#1E91C3"/>
<path d="M126.903 18.8066H123.559V22.1539H126.903V18.8066Z" fill="#1E91C3"/>
<path d="M131.474 18.8066H128.129V22.1539H131.474V18.8066Z" fill="#1E91C3"/>
<path opacity="0.2" d="M17.1844 24.0552V26.3947H13.8396V25.2518C14.9219 24.7668 16.0402 24.3667 17.1844 24.0552Z" fill="#1E91C3"/>
<path opacity="0.2" d="M21.7566 23.2994V26.3947H18.4117V23.7586L21.7566 23.2994Z" fill="#1E91C3"/>
<path d="M26.3274 23.0474H22.9825V26.3947H26.3274V23.0474Z" fill="#1E91C3"/>
<path opacity="0.7" d="M30.8995 23.0474H27.5546V26.3947H30.8995V23.0474Z" fill="#1E91C3"/>
<path d="M35.4716 23.0474H32.1267V26.3947H35.4716V23.0474Z" fill="#1E91C3"/>
<path opacity="0.7" d="M40.0424 23.0474H36.6975V26.3947H40.0424V23.0474Z" fill="#1E91C3"/>
<path opacity="0.7" d="M44.6145 23.0474H41.2697V26.3947H44.6145V23.0474Z" fill="#1E91C3"/>
<path opacity="0.2" d="M49.1853 23.0474H45.8405V26.3947H49.1853V23.0474Z" fill="#1E91C3"/>
<path opacity="0.4" d="M53.7574 23.0474H50.4126V26.3947H53.7574V23.0474Z" fill="#1E91C3"/>
<path opacity="0.4" d="M58.3296 23.0474H54.9847V26.3947H58.3296V23.0474Z" fill="#1E91C3"/>
<path d="M62.9004 23.0474H59.5555V26.3947H62.9004V23.0474Z" fill="#1E91C3"/>
<path opacity="0.2" d="M67.4725 23.0474H64.1277V26.3947H67.4725V23.0474Z" fill="#1E91C3"/>
<path opacity="0.4" d="M72.0433 23.0474H68.6984V26.3947H72.0433V23.0474Z" fill="#1E91C3"/>
<path d="M76.6154 23.0474H73.2705V26.3947H76.6154V23.0474Z" fill="#1E91C3"/>
<path opacity="0.2" d="M81.1875 23.0474H77.8427V26.3947H81.1875V23.0474Z" fill="#1E91C3"/>
<path opacity="0.4" d="M85.7583 23.0474H82.4135V26.3947H85.7583V23.0474Z" fill="#1E91C3"/>
<path opacity="0.2" d="M90.3304 23.0474H86.9856V26.3947H90.3304V23.0474Z" fill="#1E91C3"/>
<path d="M94.9025 23.0474H91.5577V26.3947H94.9025V23.0474Z" fill="#1E91C3"/>
<path opacity="0.2" d="M99.4734 23.0474H96.1284V26.3947H99.4734V23.0474Z" fill="#1E91C3"/>
<path opacity="0.7" d="M104.045 23.0474H100.701V26.3947H104.045V23.0474Z" fill="#1E91C3"/>
<path opacity="0.7" d="M108.616 23.0474H105.271V26.3947H108.616V23.0474Z" fill="#1E91C3"/>
<path opacity="0.4" d="M113.188 23.0474H109.844V26.3947H113.188V23.0474Z" fill="#1E91C3"/>
<path opacity="0.2" d="M117.76 23.0474H114.416V26.3947H117.76V23.0474Z" fill="#1E91C3"/>
<path d="M122.331 23.0474H118.986V26.3947H122.331V23.0474Z" fill="#1E91C3"/>
<path d="M126.903 23.0474H123.559V26.3947H126.903V23.0474Z" fill="#1E91C3"/>
<path d="M131.474 23.0474H128.129V26.3947H131.474V23.0474Z" fill="#1E91C3"/>
<path opacity="0.2" d="M17.1844 27.2869H13.8396V30.6342H17.1844V27.2869Z" fill="#1E91C3"/>
<path opacity="0.2" d="M21.7566 27.2869H18.4117V30.6342H21.7566V27.2869Z" fill="#1E91C3"/>
<path opacity="0.2" d="M26.3274 27.2869H22.9825V30.6342H26.3274V27.2869Z" fill="#1E91C3"/>
<path opacity="0.2" d="M30.8995 27.2869H27.5546V30.6342H30.8995V27.2869Z" fill="#1E91C3"/>
<path d="M35.4716 27.2869H32.1267V30.6342H35.4716V27.2869Z" fill="#1E91C3"/>
<path opacity="0.7" d="M40.0424 27.2869H36.6975V30.6342H40.0424V27.2869Z" fill="#1E91C3"/>
<path opacity="0.7" d="M44.6145 27.2869H41.2697V30.6342H44.6145V27.2869Z" fill="#1E91C3"/>
<path opacity="0.2" d="M49.1853 27.2869H45.8405V30.6342H49.1853V27.2869Z" fill="#1E91C3"/>
<path opacity="0.2" d="M53.7574 27.2869H50.4126V30.6342H53.7574V27.2869Z" fill="#1E91C3"/>
<path opacity="0.4" d="M58.3296 27.2869H54.9847V30.6342H58.3296V27.2869Z" fill="#1E91C3"/>
<path opacity="0.4" d="M62.9004 27.2869H59.5555V30.6342H62.9004V27.2869Z" fill="#1E91C3"/>
<path d="M67.4725 27.2869H64.1277V30.6342H67.4725V27.2869Z" fill="#1E91C3"/>
<path opacity="0.2" d="M72.0433 27.2869H68.6984V30.6342H72.0433V27.2869Z" fill="#1E91C3"/>
<path opacity="0.4" d="M76.6154 27.2869H73.2705V30.6342H76.6154V27.2869Z" fill="#1E91C3"/>
<path opacity="0.4" d="M81.1875 27.2869H77.8427V30.6342H81.1875V27.2869Z" fill="#1E91C3"/>
<path opacity="0.4" d="M85.7583 27.2869H82.4135V30.6342H85.7583V27.2869Z" fill="#1E91C3"/>
<path opacity="0.4" d="M90.3304 27.2869H86.9856V30.6342H90.3304V27.2869Z" fill="#1E91C3"/>
<path opacity="0.2" d="M94.9025 27.2869H91.5577V30.6342H94.9025V27.2869Z" fill="#1E91C3"/>
<path opacity="0.2" d="M99.4734 27.2869H96.1284V30.6342H99.4734V27.2869Z" fill="#1E91C3"/>
<path opacity="0.2" d="M104.045 27.2869H100.701V30.6342H104.045V27.2869Z" fill="#1E91C3"/>
<path opacity="0.2" d="M108.616 27.2869H105.271V30.6342H108.616V27.2869Z" fill="#1E91C3"/>
<path opacity="0.7" d="M113.188 27.2869H109.844V30.6342H113.188V27.2869Z" fill="#1E91C3"/>
<path opacity="0.7" d="M117.76 27.2869H114.416V30.6342H117.76V27.2869Z" fill="#1E91C3"/>
<path opacity="0.4" d="M122.331 27.2869H118.986V30.6342H122.331V27.2869Z" fill="#1E91C3"/>
<path opacity="0.2" d="M126.903 27.2869H123.559V30.6342H126.903V27.2869Z" fill="#1E91C3"/>
<path d="M131.474 27.2869H128.129V30.6342H131.474V27.2869Z" fill="#1E91C3"/>
<path opacity="0.2" d="M17.1844 31.5276H13.8396V34.8749H17.1844V31.5276Z" fill="#1E91C3"/>
<path opacity="0.2" d="M21.7566 31.5276H18.4117V34.8749H21.7566V31.5276Z" fill="#1E91C3"/>
<path opacity="0.4" d="M26.3274 31.5276H22.9825V34.8749H26.3274V31.5276Z" fill="#1E91C3"/>
<path opacity="0.2" d="M30.8995 31.5276H27.5546V34.8749H30.8995V31.5276Z" fill="#1E91C3"/>
<path opacity="0.2" d="M35.4716 31.5276H32.1267V34.8749H35.4716V31.5276Z" fill="#1E91C3"/>
<path opacity="0.7" d="M40.0424 31.5276H36.6975V34.8749H40.0424V31.5276Z" fill="#1E91C3"/>
<path opacity="0.7" d="M44.6145 31.5276H41.2697V34.8749H44.6145V31.5276Z" fill="#1E91C3"/>
<path opacity="0.2" d="M49.1853 31.5276H45.8405V34.8749H49.1853V31.5276Z" fill="#1E91C3"/>
<path opacity="0.2" d="M53.7574 31.5276H50.4126V34.8749H53.7574V31.5276Z" fill="#1E91C3"/>
<path opacity="0.4" d="M58.3296 31.5276H54.9847V34.8749H58.3296V31.5276Z" fill="#1E91C3"/>
<path d="M62.9004 31.5276H59.5555V34.8749H62.9004V31.5276Z" fill="#1E91C3"/>
<path opacity="0.2" d="M67.4725 31.5276H64.1277V34.8749H67.4725V31.5276Z" fill="#1E91C3"/>
<path d="M72.0433 31.5276H68.6984V34.8749H72.0433V31.5276Z" fill="#1E91C3"/>
<path d="M76.6154 31.5276H73.2705V34.8749H76.6154V31.5276Z" fill="#1E91C3"/>
<path d="M81.1875 31.5276H77.8427V34.8749H81.1875V31.5276Z" fill="#1E91C3"/>
<path opacity="0.2" d="M85.7583 31.5276H82.4135V34.8749H85.7583V31.5276Z" fill="#1E91C3"/>
<path d="M90.3304 31.5276H86.9856V34.8749H90.3304V31.5276Z" fill="#1E91C3"/>
<path opacity="0.2" d="M94.9025 31.5276H91.5577V34.8749H94.9025V31.5276Z" fill="#1E91C3"/>
<path opacity="0.2" d="M99.4734 31.5276H96.1284V34.8749H99.4734V31.5276Z" fill="#1E91C3"/>
<path opacity="0.2" d="M104.045 31.5276H100.701V34.8749H104.045V31.5276Z" fill="#1E91C3"/>
<path opacity="0.2" d="M108.616 31.5276H105.271V34.8749H108.616V31.5276Z" fill="#1E91C3"/>
<path opacity="0.2" d="M113.188 31.5276H109.844V34.8749H113.188V31.5276Z" fill="#1E91C3"/>
<path opacity="0.7" d="M117.76 31.5276H114.416V34.8749H117.76V31.5276Z" fill="#1E91C3"/>
<path opacity="0.2" d="M122.331 31.5276H118.986V34.8749H122.331V31.5276Z" fill="#1E91C3"/>
<path opacity="0.2" d="M126.903 31.5276H123.559V34.8749H126.903V31.5276Z" fill="#1E91C3"/>
<path d="M131.474 31.5276H128.129V34.8749H131.474V31.5276Z" fill="#1E91C3"/>
<path opacity="0.2" d="M17.1844 35.7672H13.8396V39.1144H17.1844V35.7672Z" fill="#1E91C3"/>
<path opacity="0.2" d="M21.7566 35.7672H18.4117V39.1144H21.7566V35.7672Z" fill="#1E91C3"/>
<path opacity="0.2" d="M26.3274 35.7672H22.9825V39.1144H26.3274V35.7672Z" fill="#1E91C3"/>
<path opacity="0.4" d="M30.8995 35.7672H27.5546V39.1144H30.8995V35.7672Z" fill="#1E91C3"/>
<path opacity="0.2" d="M35.4716 35.7672H32.1267V39.1144H35.4716V35.7672Z" fill="#1E91C3"/>
<path opacity="0.2" d="M40.0424 35.7672H36.6975V39.1144H40.0424V35.7672Z" fill="#1E91C3"/>
<path opacity="0.7" d="M44.6145 35.7672H41.2697V39.1144H44.6145V35.7672Z" fill="#1E91C3"/>
<path opacity="0.2" d="M49.1853 35.7672H45.8405V39.1144H49.1853V35.7672Z" fill="#1E91C3"/>
<path opacity="0.2" d="M53.7574 35.7672H50.4126V39.1144H53.7574V35.7672Z" fill="#1E91C3"/>
<path opacity="0.2" d="M58.3296 35.7672H54.9847V39.1144H58.3296V35.7672Z" fill="#1E91C3"/>
<path d="M62.9004 35.7672H59.5555V39.1144H62.9004V35.7672Z" fill="#1E91C3"/>
<path opacity="0.2" d="M67.4725 35.7672H64.1277V39.1144H67.4725V35.7672Z" fill="#1E91C3"/>
<path d="M72.0433 35.7672H68.6984V39.1144H72.0433V35.7672Z" fill="#1E91C3"/>
<path d="M76.6154 35.7672H73.2705V39.1144H76.6154V35.7672Z" fill="#1E91C3"/>
<path opacity="0.2" d="M81.1875 35.7672H77.8427V39.1144H81.1875V35.7672Z" fill="#1E91C3"/>
<path opacity="0.2" d="M85.7583 35.7672H82.4135V39.1144H85.7583V35.7672Z" fill="#1E91C3"/>
<path opacity="0.2" d="M90.3304 35.7672H86.9856V39.1144H90.3304V35.7672Z" fill="#1E91C3"/>
<path opacity="0.2" d="M94.9025 35.7672H91.5577V39.1144H94.9025V35.7672Z" fill="#1E91C3"/>
<path opacity="0.2" d="M99.4734 35.7672H96.1284V39.1144H99.4734V35.7672Z" fill="#1E91C3"/>
<path opacity="0.2" d="M104.045 35.7672H100.701V39.1144H104.045V35.7672Z" fill="#1E91C3"/>
<path opacity="0.2" d="M108.616 35.7672H105.271V39.1144H108.616V35.7672Z" fill="#1E91C3"/>
<path opacity="0.2" d="M113.188 35.7672H109.844V39.1144H113.188V35.7672Z" fill="#1E91C3"/>
<path opacity="0.2" d="M117.76 35.7672H114.416V39.1144H117.76V35.7672Z" fill="#1E91C3"/>
<path opacity="0.2" d="M122.331 35.7672H118.986V39.1144H122.331V35.7672Z" fill="#1E91C3"/>
<path opacity="0.4" d="M126.903 35.7672H123.559V39.1144H126.903V35.7672Z" fill="#1E91C3"/>
<path d="M131.474 35.7672H128.129V39.1144H131.474V35.7672Z" fill="#1E91C3"/>
<path opacity="0.7" d="M17.1844 40.0079H13.8396V43.3551H17.1844V40.0079Z" fill="#1E91C3"/>
<path opacity="0.7" d="M21.7566 40.0079H18.4117V43.3551H21.7566V40.0079Z" fill="#1E91C3"/>
<path opacity="0.7" d="M26.3274 40.0079H22.9825V43.3551H26.3274V40.0079Z" fill="#1E91C3"/>
<path opacity="0.7" d="M30.8995 40.0079H27.5546V43.3551H30.8995V40.0079Z" fill="#1E91C3"/>
<path opacity="0.7" d="M35.4716 40.0079H32.1267V43.3551H35.4716V40.0079Z" fill="#1E91C3"/>
<path opacity="0.2" d="M40.0424 40.0079H36.6975V43.3551H40.0424V40.0079Z" fill="#1E91C3"/>
<path opacity="0.2" d="M44.6145 40.0079H41.2697V43.3551H44.6145V40.0079Z" fill="#1E91C3"/>
<path opacity="0.2" d="M49.1853 40.0079H45.8405V43.3551H49.1853V40.0079Z" fill="#1E91C3"/>
<path opacity="0.2" d="M53.7574 40.0079H50.4126V43.3551H53.7574V40.0079Z" fill="#1E91C3"/>
<path opacity="0.2" d="M58.3296 40.0079H54.9847V43.3551H58.3296V40.0079Z" fill="#1E91C3"/>
<path opacity="0.2" d="M62.9004 40.0079H59.5555V43.3551H62.9004V40.0079Z" fill="#1E91C3"/>
<path d="M67.4725 40.0079H64.1277V43.3551H67.4725V40.0079Z" fill="#1E91C3"/>
<path opacity="0.2" d="M72.0433 40.0079H68.6984V43.3551H72.0433V40.0079Z" fill="#1E91C3"/>
<path opacity="0.2" d="M76.6154 40.0079H73.2705V43.3551H76.6154V40.0079Z" fill="#1E91C3"/>
<path opacity="0.2" d="M81.1875 40.0079H77.8427V43.3551H81.1875V40.0079Z" fill="#1E91C3"/>
<path d="M85.7583 40.0079H82.4135V43.3551H85.7583V40.0079Z" fill="#1E91C3"/>
<path opacity="0.2" d="M90.3304 40.0079H86.9856V43.3551H90.3304V40.0079Z" fill="#1E91C3"/>
<path opacity="0.2" d="M94.9025 40.0079H91.5577V43.3551H94.9025V40.0079Z" fill="#1E91C3"/>
<path opacity="0.2" d="M99.4734 40.0079H96.1284V43.3551H99.4734V40.0079Z" fill="#1E91C3"/>
<path opacity="0.2" d="M104.045 40.0079H100.701V43.3551H104.045V40.0079Z" fill="#1E91C3"/>
<path opacity="0.2" d="M108.616 40.0079H105.271V43.3551H108.616V40.0079Z" fill="#1E91C3"/>
<path opacity="0.2" d="M113.188 40.0079H109.844V43.3551H113.188V40.0079Z" fill="#1E91C3"/>
<path opacity="0.2" d="M117.76 40.0079H114.416V43.3551H117.76V40.0079Z" fill="#1E91C3"/>
<path opacity="0.2" d="M122.331 40.0079H118.986V43.3551H122.331V40.0079Z" fill="#1E91C3"/>
<path opacity="0.2" d="M126.903 40.0079H123.559V43.3551H126.903V40.0079Z" fill="#1E91C3"/>
<path d="M131.474 40.0079H128.129V43.3551H131.474V40.0079Z" fill="#1E91C3"/>
<path d="M96.3095 52.3222C98.8346 52.3222 100.882 50.2737 100.882 47.7468C100.882 45.2199 98.8346 43.1714 96.3095 43.1714C93.7844 43.1714 91.7374 45.2199 91.7374 47.7468C91.7374 50.2737 93.7844 52.3222 96.3095 52.3222Z" fill="#767D9F"/>
<path d="M96.0721 41.9263C96.5284 43.919 96.9157 45.9265 97.2338 47.9489C97.3296 48.5499 97.4148 49.1836 97.1971 49.7518C97.0149 50.2255 96.6438 50.5955 96.3527 51.0101C96.0616 51.4247 95.8413 51.9562 96.0184 52.4311C96.1954 52.9061 96.712 53.1659 97.205 53.2998C98.6158 53.6803 100.12 53.4034 101.524 52.9914C102.16 52.8276 102.769 52.575 103.335 52.2409C103.93 51.863 104.418 51.3381 104.866 50.7976C106.913 48.3137 108.253 45.3326 109.514 42.3698C108.704 42.4436 107.888 42.3234 107.133 42.019C106.378 41.7146 105.706 41.2349 105.173 40.6194C104.656 40.0119 104.278 39.1656 104.569 38.4229C103.715 38.8913 102.702 38.9228 101.782 39.243C101.212 39.4608 100.664 39.731 100.143 40.0499C99.5157 40.413 98.8916 40.783 98.271 41.16C97.5616 41.5878 96.8969 41.9683 96.0721 41.9263Z" fill="#AE6E79"/>
<path d="M105.635 45.3614C104.833 46.9216 103.791 48.4213 102.303 49.3503C100.815 50.2793 98.8112 50.5312 97.3204 49.6127C96.5861 49.164 96.0302 48.4817 95.389 47.907C94.7478 47.3323 93.9467 46.8402 93.0852 46.915C92.1359 46.9977 91.3925 47.739 90.7566 48.4489C89.7915 49.5274 88.8593 50.6519 88.1761 51.9286C86.865 54.3823 86.5542 57.2506 86.6119 60.0323C86.6696 62.814 87.0721 65.5813 87.0813 68.363C87.0944 71.785 86.5149 75.1795 85.9288 78.5503C91.3178 77.8864 96.7133 79.3376 102.114 79.8874C105.57 80.243 109.053 80.2351 112.528 80.2259C113.139 80.2259 113.789 80.2102 114.298 79.8716C114.609 79.6446 114.86 79.3457 115.031 79.0004C115.51 78.1147 115.703 77.1044 115.837 76.1058C116.177 73.5839 116.187 71.0305 116.196 68.485C116.22 62.318 116.242 56.1287 115.459 50.0103C115.267 48.5053 115.02 46.9924 114.443 45.5845C113.866 44.1766 112.925 42.8815 111.608 42.127C110.763 41.6416 108.802 40.7966 107.806 41.286C106.688 41.8318 106.171 44.317 105.635 45.3614Z" fill="#767D9F"/>
<path d="M106.033 62.776C105.83 58.9708 105.003 54.9098 106.764 51.5324C107.196 50.7031 105.644 49.6679 106.124 48.8648C106.709 47.8858 107.153 46.8286 107.443 45.7249C107.542 45.3457 107.622 44.9442 107.528 44.5637C107.354 43.8696 106.668 43.4563 106.086 43.0338C105.443 42.5666 105.113 41.143 104.906 40.3728C104.698 39.6026 106.554 40.5302 107.3 40.256C108.336 39.8768 109.652 40.1156 110.685 40.5C111.262 40.7126 111.889 40.731 112.504 40.7467C113.698 40.7782 114.897 40.8084 116.082 40.6614C116.614 40.5945 117.148 40.4935 117.683 40.5237C119.048 40.6011 120.235 41.5353 121.042 42.6401C121.85 43.7449 122.364 45.0321 123.026 46.2288C123.578 47.226 124.236 48.1681 124.707 49.206C125.124 50.1245 125.388 51.1112 125.649 52.0927L126.321 54.6106C126.439 54.9708 126.495 55.3484 126.486 55.7272C126.452 56.1301 126.274 56.5053 126.093 56.8635C125.409 58.1912 124.588 59.444 123.645 60.6018C122.23 62.3377 120.513 63.9031 119.672 65.9815C119.344 66.7911 119.162 67.6518 118.996 68.5099C118.324 71.9421 117.847 75.4094 117.566 78.8954C116.034 78.1859 114.428 77.6486 112.778 77.2933C111.955 77.1171 111.124 76.9857 110.287 76.8997C109.554 76.8236 108.608 76.9679 107.911 76.7684C106.744 76.4365 106.615 74.4617 106.438 73.4278C106.155 71.7811 106.099 70.1055 106.088 68.4417C106.075 66.5496 106.134 64.6615 106.033 62.776Z" fill="#4C4981"/>
<path d="M80.406 55.6603C80.958 58.8094 81.5664 61.9677 82.7662 64.9265C82.736 64.9554 82.7058 64.9816 82.6757 65.0079C82.5695 65.0984 82.4593 65.1837 82.344 65.2703C82.0752 65.4592 81.7802 65.6193 81.5572 65.866C81.4728 65.9604 81.4062 66.0693 81.3606 66.1875C81.3194 66.2797 81.2981 66.3796 81.2981 66.4807C81.2981 66.5818 81.3194 66.6817 81.3606 66.774C80.7351 67.0508 80.0087 66.9655 79.3072 66.9393C78.7028 66.917 78.1167 66.9393 77.6316 67.2713C76.9576 67.7358 76.7544 68.628 76.6455 69.4389C76.6053 69.7346 76.5708 70.0307 76.542 70.3272C76.514 70.6027 76.4913 70.8792 76.4738 71.1565C76.4143 72.0738 76.406 72.9937 76.4489 73.9119C76.4559 74.0799 76.465 74.2478 76.4764 74.4158C74.3339 74.3646 72.3816 73.2467 70.5341 72.1602C70.1119 71.9122 69.6766 71.6511 69.4025 71.2417C69.15 70.8397 69.0431 70.3631 69.0997 69.8916C69.0997 69.8247 69.1115 69.7604 69.1206 69.6921C69.1794 69.3028 69.28 68.9209 69.4209 68.5532C69.9989 66.9871 70.8509 65.5364 71.9371 64.2691C72.4065 63.7207 72.9349 63.184 73.1538 62.4951C73.2496 62.1947 73.285 61.8758 73.382 61.5766C73.8173 60.2803 75.3881 59.6675 75.9257 58.4092C76.0568 58.1087 76.1171 57.7794 76.2797 57.4907C76.4261 57.2508 76.6149 57.0396 76.837 56.8674C76.9327 56.7874 77.0323 56.71 77.1307 56.6326C78.052 55.91 78.9397 55.1468 79.7937 54.3429C79.9528 54.1933 80.1101 54.042 80.2657 53.8889C80.2449 54.4828 80.292 55.0771 80.406 55.6603Z" fill="#4C4981"/>
<path d="M93.6189 46.3468C93.4301 46.5463 93.2255 46.7339 93.0249 46.9202L92.9711 46.9688L92.7587 47.1656C92.3732 47.4986 92.0395 47.8873 91.7688 48.3189L91.7465 48.3557C91.0778 49.5537 91.3256 51.0285 91.5118 52.3891C91.7427 54.0848 91.8466 55.7953 91.8225 57.5064C91.7884 59.8682 91.5105 62.2143 91.5052 64.5735C91.5052 65.1088 91.517 65.6429 91.5406 66.1782C91.5787 67.0482 91.6442 67.9168 91.7229 68.7854C91.8081 69.738 91.9104 70.6893 92.0061 71.6406C92.0822 72.3767 92.1543 73.1115 92.2146 73.8463C92.2447 74.2268 92.2736 74.606 92.2972 74.9865C92.3247 75.4326 92.347 75.8801 92.3601 76.3262C92.3693 76.6096 92.3745 76.8917 92.3745 77.1751C92.3745 77.3365 92.3745 77.4966 92.3745 77.6567C92.3745 77.9637 92.3662 78.2699 92.3496 78.5752C92.3322 78.9679 92.3055 79.3616 92.2697 79.7561C92.229 80.1851 92.1569 80.6536 91.8553 80.9553C91.837 80.9737 91.8173 80.9908 91.7976 81.0078L91.3728 80.9553C88.4442 80.6045 85.4877 80.5517 82.5485 80.7979C82.6127 80.3544 82.6718 79.9122 82.7294 79.4674C82.7557 79.2575 82.7819 79.0462 82.8068 78.835C82.8356 78.5935 82.8632 78.3521 82.8894 78.1107C82.9196 77.8482 82.9471 77.5858 82.9733 77.3234C83.0415 76.6472 83.1014 75.9706 83.153 75.2935C83.229 74.3059 83.2867 73.3166 83.326 72.3255C83.3453 71.8523 83.3601 71.3786 83.3706 70.9045C83.3855 70.3167 83.3925 69.7284 83.3916 69.1397C83.3916 68.5676 83.3868 67.9946 83.3772 67.4208C83.3772 67.2319 83.3693 67.0429 83.3536 66.8553C83.3423 66.6863 83.3191 66.5184 83.2841 66.3527C83.1867 65.9708 83.0551 65.5983 82.8907 65.2401C82.8619 65.1718 82.8343 65.1089 82.8068 65.0367C82.7911 65.0013 82.7766 64.9645 82.7622 64.9291C83.5175 64.256 84.0551 63.3545 84.5717 62.4676C85.4095 61.0387 86.267 59.5468 86.4073 57.8961C86.5476 56.2455 85.7281 54.3915 84.1521 53.8876C83.7233 53.7564 83.2697 53.7196 82.8278 53.6422C82.4108 53.5687 81.5415 53.4021 81.059 53.1029C80.7968 53.3724 80.5345 53.637 80.2723 53.8968C80.2882 53.5004 80.385 53.1114 80.5568 52.7539L80.743 52.7631C80.7278 52.7211 80.7207 52.6766 80.722 52.6319C80.722 52.4915 80.819 52.3327 81.0262 52.1569C81.6438 51.6321 82.6154 51.5153 83.0048 50.8054C83.1674 50.5102 83.1949 50.1585 83.326 49.8489C83.7023 48.9658 84.7828 48.6404 85.4331 47.9345C86.0835 47.2286 86.2461 46.2287 86.7718 45.4415C87.1646 44.8666 87.7094 44.4123 88.3453 44.1293C88.3977 44.1044 88.4515 44.0795 88.5052 44.0572C89.5935 43.5914 90.8864 43.4851 92.014 43.4877C92.4519 43.4877 93.5874 43.5008 94.1433 43.7226C94.2335 43.7548 94.3161 43.8053 94.3859 43.8709C94.9786 44.5164 94.0568 45.8797 93.6189 46.3468Z" fill="#4C4981"/>
<path d="M80.6014 52.6621C81.6143 52.357 82.6777 52.2563 83.7297 52.366C84.7818 52.4757 85.8016 52.7936 86.7299 53.3011C87.6739 53.8259 88.521 54.5581 89.0402 55.5028C89.8204 56.9199 89.7863 58.6283 89.7312 60.2461C89.7037 61.0557 89.6683 61.8942 89.3116 62.6211C88.8986 63.4622 88.1197 64.0395 87.3252 64.5119C86.8274 64.8297 86.2821 65.0658 85.7098 65.2112C84.8287 65.4028 83.9135 65.2401 83.0258 65.08C82.0607 64.9016 81.0249 64.6864 80.3549 63.9673C79.9615 63.5501 79.7465 63.0082 79.5341 62.4781C79.229 61.7127 78.9231 60.9481 78.6163 60.1845C78.0852 58.8579 77.9056 57.7544 78.6071 56.462C78.9257 55.8729 79.3151 55.3218 79.6298 54.7287C79.7871 54.4269 80.351 52.7395 80.6014 52.6621Z" fill="#4C4981"/>
<path d="M135.708 75.3447V79.2679C133.018 80.3861 130.133 80.957 127.221 80.9475H91.8593C91.8409 80.9658 91.8212 80.9829 91.8016 80.9999L91.3767 80.9475H28.4751C23.1976 80.9475 18.3068 79.5225 14.2959 77.0951V71.1052L44.5476 67.611H44.5712L62.1884 69.1042L66.7474 69.4979L69.1154 69.6986L74.0166 70.1146L76.538 70.3284L80.2093 70.6407L80.726 70.684L83.3719 70.9084L86.962 71.2036L92.01 71.6314L100.425 72.3465L106.345 72.849L116.066 73.6744L117.915 73.8305L118.114 73.8476L118.288 73.862L120.729 74.0693L123.409 74.2976L123.72 74.3239L135.708 75.3447Z" fill="#504F60"/>
<path d="M100.175 75.2004L62.2631 68.7251L60.7932 76.1635L78.1717 78.2459L83.5227 78.9164L98.2421 76.0152L100.175 75.2004Z" fill="#9C9CA1"/>
<path d="M80.5503 78.5438L99.5441 74.9709C99.6391 74.9527 99.737 74.9557 99.8307 74.9799C99.9244 75.004 100.012 75.0486 100.086 75.1104C100.161 75.1722 100.22 75.2498 100.261 75.3375C100.302 75.4252 100.323 75.5209 100.323 75.6177C100.323 75.7713 100.27 75.9202 100.172 76.0384C100.074 76.1566 99.9376 76.2367 99.7867 76.2646L81.2373 79.7404L80.5503 78.5438Z" fill="#9C9CA1"/>
<path d="M88.7898 67.308C89.3811 67.2528 89.9803 67.1597 90.5127 66.8973C91.1683 66.5705 91.6783 66.0076 92.2854 65.593C93.6202 64.6745 95.406 64.5512 96.9362 65.0787C98.4664 65.6061 99.7435 66.7359 100.638 68.0847C101.232 68.9835 101.677 70.1303 101.258 71.1223C101.114 71.4255 100.932 71.7094 100.718 71.9673L99.6241 73.3975C99.4164 73.6982 99.1665 73.9673 98.882 74.1966C98.4729 74.4945 97.9642 74.6165 97.4633 74.69C96.1324 74.8842 94.778 74.774 93.4366 74.8632C91.1329 75.0167 88.8829 75.7594 86.5739 75.7344C85.247 75.72 83.9371 75.4523 82.6403 75.1847L76.9012 74.0037C75.9021 73.7991 74.7732 73.4999 74.3025 72.5932C74.0914 72.1851 74.052 71.7128 74.0271 71.2535C73.9589 69.9886 74.0271 68.582 74.903 67.6701C75.7264 66.8146 77.0284 66.5443 78.0118 65.9118C79.2155 65.1364 79.6128 65.387 80.882 65.9696C83.3582 67.0918 86.0826 67.5529 88.7898 67.308Z" fill="#AE6E79"/>
<path opacity="0.05" d="M88.7898 67.308C89.3811 67.2528 89.9803 67.1597 90.5127 66.8973C91.1683 66.5705 91.6783 66.0076 92.2854 65.593C93.6202 64.6745 95.406 64.5512 96.9362 65.0787C98.4664 65.6061 99.7435 66.7359 100.638 68.0847C101.232 68.9835 101.677 70.1303 101.258 71.1223C101.114 71.4255 100.932 71.7094 100.718 71.9673L99.6241 73.3975C99.4164 73.6982 99.1665 73.9673 98.882 74.1966C98.4729 74.4945 97.9642 74.6165 97.4633 74.69C96.1324 74.8842 94.778 74.774 93.4366 74.8632C91.1329 75.0167 88.8829 75.7594 86.5739 75.7344C85.247 75.72 83.9371 75.4523 82.6403 75.1847L76.9012 74.0037C75.9021 73.7991 74.7732 73.4999 74.3025 72.5932C74.0914 72.1851 74.052 71.7128 74.0271 71.2535C73.9589 69.9886 74.0271 68.582 74.903 67.6701C75.7264 66.8146 77.0284 66.5443 78.0118 65.9118C79.2155 65.1364 79.6128 65.387 80.882 65.9696C83.3582 67.0918 86.0826 67.5529 88.7898 67.308Z" fill="black"/>
<path d="M111.837 65.509C110.226 66.1323 108.607 66.7582 106.921 67.1295C104.094 67.7528 101.136 67.6544 98.3313 68.3668C96.8496 68.7447 95.3772 69.3536 93.8549 69.2302C93.1744 69.1751 92.5175 68.9678 91.8553 68.8103C88.1355 67.8919 83.9069 68.1897 80.8859 70.5515C79.8527 71.3585 79.007 72.3649 78.2399 73.4382C78.0758 73.67 77.9649 73.9353 77.9151 74.215C77.8653 74.4947 77.8778 74.782 77.9519 75.0562C78.0259 75.3305 78.1596 75.5851 78.3433 75.8016C78.5271 76.0182 78.7564 76.1915 79.0148 76.3091C80.1897 76.8498 81.4482 77.1857 82.736 77.3024C84.4576 77.4546 86.1871 77.2105 87.8995 76.9665C90.4405 76.6056 92.9829 76.2435 95.5175 75.8381C96.4274 75.6924 97.3374 75.5415 98.2526 75.4261C104.839 74.5929 111.544 75.6058 118.147 74.9104C118.815 74.8395 119.494 74.7477 120.101 74.463C121.638 73.7413 122.398 71.8387 122.081 70.1671C121.764 68.4954 120.539 67.1059 119.065 66.253C117.83 65.5353 116.498 65.2453 115.122 64.9409C113.845 64.643 113.066 65.0367 111.837 65.509Z" fill="#AE6E79"/>
<path opacity="0.1" d="M125.962 55.5159C126.688 56.4685 126.843 57.7465 126.764 58.9393C126.686 60.132 126.403 61.3116 126.361 62.5095C126.303 64.1523 126.699 65.7899 126.632 67.4274C126.585 68.5729 126.313 69.6961 125.992 70.7956C125.613 72.0933 125.065 73.4881 123.868 74.1113C122.279 74.9393 118.946 74.4735 117.274 75.1217C117.426 74.173 118.884 72.7992 119.036 71.8506C119.141 71.1945 119.247 70.5201 119.135 69.8627C118.99 69.0242 118.499 68.2803 117.915 67.6609C116.987 66.6755 115.775 65.9342 114.445 65.6928C113.114 65.4513 109.855 65.6495 108.791 66.4905C108.66 65.6219 111.098 64.7848 111.956 64.5971C112.383 64.5014 112.874 64.5551 113.216 64.2835C113.872 63.7692 113.396 62.7444 113.427 61.9217C113.452 61.2657 113.835 60.6647 113.912 60.0086C114.043 58.9589 113.359 57.8896 113.628 56.8595C113.727 56.479 113.949 56.1444 114.102 55.7823C114.569 54.6735 114.365 53.4087 114.115 52.2304C113.961 51.4903 113.81 50.6558 114.222 50.0247C114.603 49.4355 115.686 51.5336 116.38 51.4365C118.671 51.1151 120.743 49.4159 122.594 50.8067C123.536 51.5153 123.66 52.25 124.036 53.2617C124.402 54.2248 125.35 54.7181 125.962 55.5159Z" fill="black"/>
<path d="M126.355 55.5159C127.082 56.4685 127.236 57.7465 127.158 58.9393C127.079 60.132 126.796 61.3116 126.754 62.5095C126.696 64.1523 127.092 65.7899 127.025 67.4274C126.978 68.5729 126.707 69.6961 126.386 70.7956C126.007 72.0933 125.459 73.4881 124.261 74.1113C122.672 74.9393 119.339 74.4735 117.667 75.1217C117.82 74.173 119.278 72.7992 119.43 71.8506C119.535 71.1945 119.641 70.5201 119.528 69.8627C119.384 69.0242 118.892 68.2803 118.309 67.6609C117.38 66.6755 116.169 65.9342 114.838 65.6928C113.507 65.4513 110.249 65.6495 109.184 66.4905C109.053 65.6219 111.492 64.7848 112.349 64.5971C112.777 64.5014 113.267 64.5551 113.609 64.2835C114.265 63.7692 113.789 62.7444 113.82 61.9217C113.845 61.2656 114.228 60.6647 114.306 60.0086C114.437 58.9589 113.752 57.8896 114.021 56.8595C114.121 56.479 114.342 56.1444 114.496 55.7823C114.962 54.6735 114.758 53.4087 114.509 52.2304C114.354 51.4903 114.203 50.6558 114.615 50.0247C114.997 49.4355 115.743 49.2125 116.436 49.1141C118.759 48.7997 121.112 49.4072 122.992 50.8067C123.935 51.5153 124.058 52.25 124.434 53.2617C124.795 54.2248 125.743 54.7181 126.355 55.5159Z" fill="#4C4981"/>
<path d="M39.5979 49.2991L46.7268 75.6649C46.8143 75.9879 46.998 76.2766 47.2536 76.4925C47.5092 76.7084 47.8244 76.8413 48.1573 76.8734L80.2447 79.9581C80.5063 79.9834 80.77 79.9455 81.0139 79.8478C81.2578 79.75 81.4747 79.5952 81.6465 79.3963C81.8183 79.1974 81.94 78.9602 82.0013 78.7046C82.0627 78.4489 82.0619 78.1823 81.9991 77.927L74.1923 46.1238C74.0994 45.7457 73.8756 45.4129 73.5606 45.1844C73.2456 44.956 72.8599 44.8467 72.472 44.8759L41.0572 47.2273C40.816 47.246 40.5819 47.3178 40.3717 47.4375C40.1614 47.5572 39.9801 47.7219 39.8407 47.9197C39.7013 48.1176 39.6073 48.3438 39.5653 48.5823C39.5233 48.8207 39.5345 49.0655 39.5979 49.2991Z" fill="#9C9CA1"/>
<path d="M103.205 54.4439C105.153 54.4439 106.732 52.8431 106.732 50.8684C106.732 48.8937 105.153 47.2928 103.205 47.2928C101.257 47.2928 99.6779 48.8937 99.6779 50.8684C99.6779 52.8431 101.257 54.4439 103.205 54.4439Z" fill="white"/>
<path d="M106.101 44.3458C106.101 44.3458 106.845 46.5581 104.651 47.4884L104.371 47.9791L105.745 49.3358C105.745 49.3358 107.439 46.2432 107.255 45.1449C107.255 45.1449 106.993 44.0296 106.101 44.3458Z" fill="white"/>
<path d="M103.61 54.444C105.489 54.444 107.011 52.9201 107.011 51.0403C107.011 49.1605 105.489 47.6367 103.61 47.6367C101.732 47.6367 100.209 49.1605 100.209 51.0403C100.209 52.9201 101.732 54.444 103.61 54.444Z" fill="#1E91C3"/>
<path d="M107.272 45.6475L106.732 44.7552L105.945 44.6437C106.113 41.7059 105.351 40.8307 105.351 40.8307L105.174 40.8136L104.403 40.7388L102.953 39.2325V38.8047C104.991 39.0475 106.117 40.0158 106.726 41.1508C107.801 43.1426 107.272 45.6475 107.272 45.6475Z" fill="#1E91C3"/>
<path opacity="0.1" d="M105.181 40.273V40.8136L104.41 40.7388L102.96 39.2325C102.96 39.2325 105.203 39.735 105.181 40.273Z" fill="black" stroke="#4C4981" stroke-miterlimit="10"/>
<path opacity="0.1" d="M107.272 45.6474L106.732 44.7551V41.156C107.801 43.1425 107.272 45.6474 107.272 45.6474Z" fill="black" stroke="#4C4981" stroke-miterlimit="10"/>
<path d="M97.3252 52.4394C98.2301 51.9166 98.1912 50.1537 97.2382 48.5019C96.2852 46.8501 94.779 45.9349 93.8741 46.4578C92.9691 46.9806 93.0081 48.7435 93.9611 50.3953C94.914 52.0471 96.4202 52.9623 97.3252 52.4394Z" fill="white"/>
<path d="M96.1102 49.16C97.0634 50.8119 98.233 51.9154 97.3283 52.4403C96.4236 52.9651 93.788 52.7027 92.8348 51.0494C91.8816 49.3961 92.747 47.1131 93.6517 46.5882C94.5564 46.0634 95.1556 47.5041 96.1102 49.16Z" fill="#1E91C3"/>
<path opacity="0.1" d="M104.597 37.2591C104.597 42.5377 100.988 47.6248 95.7128 47.6248C93.1795 47.6248 90.7499 46.6178 88.9585 44.8251C87.1672 43.0325 86.1608 40.6012 86.1608 38.066C86.1608 35.5309 87.1672 33.0995 88.9585 31.3069C90.7499 29.5143 93.1795 28.5072 95.7128 28.5072C100.988 28.5125 104.597 31.9791 104.597 37.2591Z" fill="black"/>
<path d="M95.7128 47.3676C100.988 47.3676 105.265 43.088 105.265 37.8088C105.265 32.5296 100.988 28.25 95.7128 28.25C90.4374 28.25 86.1608 32.5296 86.1608 37.8088C86.1608 43.088 90.4374 47.3676 95.7128 47.3676Z" fill="#AE6E79"/>
<path d="M94.8737 33.5733C96.0105 33.9918 96.6831 35.1675 97.7032 35.8223C99.1456 36.7407 101.023 36.5032 102.67 36.0492C103.588 35.7986 104.548 35.4929 105.451 35.7711C105.584 35.83 105.731 35.8509 105.875 35.8314C106.071 35.775 106.168 35.5572 106.233 35.363C107.35 32.0302 106.847 28.2552 105.161 25.1718C104.726 24.3766 104.204 23.6077 103.486 23.0553C102.919 22.621 102.253 22.3363 101.582 22.0935C100.355 21.6526 99.086 21.3391 97.795 21.158C97.567 21.1165 97.3342 21.109 97.104 21.1357C96.788 21.1868 96.5048 21.3574 96.2229 21.5096C95.0155 22.1573 93.6766 22.5212 92.3077 22.5738C90.472 22.6433 88.3741 22.2103 86.9594 23.3886C85.2548 24.8017 85.6796 27.5585 84.5743 29.4768C83.8427 30.7457 82.4318 31.6668 82.1997 33.1114C82.1393 33.553 82.1674 34.0021 82.2823 34.4327C82.8226 36.6555 84.9729 38.377 87.2649 38.4176C87.6168 38.4445 87.9693 38.3722 88.2824 38.209C88.4875 38.0689 88.6686 37.8966 88.8186 37.6986C90.3199 35.9194 92.0376 32.5288 94.8737 33.5733Z" fill="#444053"/>
<path opacity="0.1" d="M106.233 34.396C106.168 34.5902 106.071 34.808 105.875 34.8644C105.731 34.8839 105.584 34.863 105.451 34.8041C104.548 34.5259 103.583 34.8316 102.671 35.0823C101.023 35.5362 99.1416 35.779 97.7045 34.8553C96.6831 34.1992 96.0118 33.0183 94.8737 32.6063C92.0376 31.5566 90.3199 34.9524 88.8147 36.7316C88.6646 36.9296 88.4835 37.1019 88.2784 37.242C87.9654 37.4052 87.6129 37.4775 87.2609 37.4506C84.9768 37.41 82.8252 35.6885 82.2784 33.4657C82.2483 33.3345 82.222 33.2033 82.2024 33.0721C82.2024 33.0839 82.2024 33.0944 82.1958 33.1062C82.1354 33.5477 82.1635 33.9969 82.2784 34.4275C82.8186 36.6502 84.9703 38.3718 87.2609 38.4124C87.6129 38.4393 87.9654 38.367 88.2784 38.2038C88.4835 38.0637 88.6646 37.8914 88.8147 37.6934C90.3199 35.9141 92.0376 32.5236 94.8737 33.5681C96.0118 33.9866 96.6831 35.1623 97.7045 35.817C99.1468 36.7355 101.023 36.498 102.671 36.044C103.589 35.7934 104.548 35.4877 105.451 35.7659C105.584 35.8248 105.731 35.8456 105.875 35.8262C106.071 35.7698 106.168 35.552 106.233 35.3578C106.683 33.9941 106.882 32.5598 106.82 31.1249C106.781 32.2377 106.584 33.3393 106.233 34.396Z" fill="black"/>
</g>
<defs>
<clipPath id="clip0">
<rect width="150" height="81" fill="white"/>
</clipPath>
</defs>
</svg>
