<svg width="150" height="115" viewBox="0 0 150 115" fill="none" xmlns="http://www.w3.org/2000/svg">
<rect width="150" height="115" fill="white"/>
<path opacity="0.1" d="M147.098 26.1847C145.565 23.2122 143.555 20.5102 141.147 18.186L58.5996 17.4997L126.564 9.44669C122.117 7.96177 117.464 7.18305 112.775 7.13901C106.232 2.68129 97.8226 0.00665283 88.65 0.00665283C80.4199 0.00665283 72.8097 2.16464 66.6053 5.8262C61.3327 3.53441 55.3221 2.23485 48.9358 2.23485C30.5947 2.23485 15.3119 12.9519 11.8832 27.165L147.098 26.1847Z" fill="#1E91C3"/>
<path opacity="0.1" d="M150 38.1046C149.994 34.2101 149.115 30.3663 147.427 26.855L4.36195 39.5247C2.90981 41.7339 1.78117 44.1387 1.01018 46.6663L45.3133 52.2382L0 56.2998C1.36327 72.39 17.7119 85.0942 37.6832 85.0942C47.7358 85.0942 56.8699 81.8751 63.6385 76.6252C70.4283 81.9744 79.65 85.2638 89.8115 85.2638C104.887 85.2638 117.9 78.0214 123.96 67.5508C136.116 64.2946 145.56 56.121 148.792 45.8954L92.765 38.5643H150C150 38.4106 150 38.2583 150 38.1046Z" fill="#1E91C3"/>
<path opacity="0.1" d="M66.369 114.999C87.6281 114.999 104.862 114.231 104.862 113.285C104.862 112.338 87.6281 111.57 66.369 111.57C45.11 111.57 27.8761 112.338 27.8761 113.285C27.8761 114.231 45.11 114.999 66.369 114.999Z" fill="#1E91C3"/>
<path d="M89.2155 110.269V111.305H58.5186V110.464C60.3907 109.772 62.0149 108.541 63.1856 106.927C64.3563 105.313 65.0209 103.389 65.0952 101.398C65.1696 99.4071 64.6503 97.4389 63.6032 95.7426C62.556 94.0462 61.0281 92.6981 59.2128 91.8688H89.0071C87.2325 92.6797 85.7317 93.9868 84.6866 95.6318C83.6415 97.2768 83.097 99.189 83.1191 101.137C83.1411 103.084 83.7288 104.984 84.8109 106.605C85.893 108.226 87.423 109.499 89.2155 110.269Z" fill="#C8CAD7"/>
<path opacity="0.1" d="M89.0071 91.8688C87.6378 92.4962 86.4265 93.4213 85.4618 94.5763C84.4972 95.7313 83.8036 97.087 83.4319 98.5442H64.7894C64.4175 97.0871 63.7238 95.7315 62.7592 94.5765C61.7945 93.4215 60.5833 92.4964 59.2142 91.8688H89.0071Z" fill="black"/>
<path d="M23.3628 86.5912V92.4068C23.3628 95.6179 25.7177 98.221 28.6235 98.221H118.945C121.85 98.221 124.205 95.6179 124.205 92.4068V86.5912H23.3628Z" fill="#C8CAD7"/>
<path opacity="0.1" d="M89.2155 110.269V111.305H58.5186V110.464C59.3601 110.152 60.1561 109.728 60.8854 109.206H87.3332C87.9208 109.626 88.5518 109.983 89.2155 110.269Z" fill="black"/>
<path d="M98.0987 109.529H49.6354C48.9389 109.529 48.3743 110.092 48.3743 110.787V111.34C48.3743 112.035 48.9389 112.598 49.6354 112.598H98.0987C98.7951 112.598 99.3597 112.035 99.3597 111.34V110.787C99.3597 110.092 98.7951 109.529 98.0987 109.529Z" fill="#C8CAD7"/>
<path d="M124.205 22.8675C124.204 21.4764 123.648 20.1429 122.662 19.16C121.676 18.1771 120.339 17.6252 118.945 17.6256H28.6274C27.2328 17.6241 25.8947 18.1756 24.9075 19.1586C23.9202 20.1416 23.3646 21.4757 23.3628 22.8675V87.7224H124.205V22.8675Z" fill="#474157"/>
<path d="M121.46 25.2097V80.9372C121.46 81.2767 121.393 81.6128 121.263 81.9265C121.133 82.2401 120.943 82.5251 120.702 82.7651C120.461 83.0052 120.176 83.1955 119.862 83.3254C119.547 83.4552 119.21 83.5219 118.87 83.5218H28.7084C28.3683 83.5219 28.0314 83.4552 27.7171 83.3254C27.4028 83.1955 27.1173 83.0052 26.8767 82.7651C26.6362 82.5251 26.4455 82.2401 26.3154 81.9265C26.1853 81.6128 26.1184 81.2767 26.1186 80.9372V25.2097C26.1186 24.5242 26.3914 23.8668 26.8771 23.3821C27.3628 22.8974 28.0215 22.6251 28.7084 22.6251H118.864C119.204 22.6243 119.542 22.6905 119.857 22.82C120.172 22.9495 120.458 23.1397 120.699 23.3798C120.94 23.6199 121.132 23.9051 121.262 24.2191C121.393 24.5331 121.46 24.8697 121.46 25.2097Z" fill="#4C4C78"/>
<path d="M73.7854 21.3335C74.4562 21.3335 75 20.7908 75 20.1214C75 19.4519 74.4562 18.9092 73.7854 18.9092C73.1146 18.9092 72.5708 19.4519 72.5708 20.1214C72.5708 20.7908 73.1146 21.3335 73.7854 21.3335Z" fill="white"/>
<path d="M73.7854 95.6376C75.4393 95.6376 76.7801 94.2996 76.7801 92.6491C76.7801 90.9985 75.4393 89.6605 73.7854 89.6605C72.1315 89.6605 70.7907 90.9985 70.7907 92.6491C70.7907 94.2996 72.1315 95.6376 73.7854 95.6376Z" fill="white"/>
<path d="M46.265 23.918V83.5217H28.7084C28.3683 83.5219 28.0314 83.4552 27.7171 83.3253C27.4028 83.1955 27.1173 83.0051 26.8767 82.7651C26.6362 82.5251 26.4455 82.2401 26.3154 81.9264C26.1853 81.6128 26.1184 81.2766 26.1186 80.9372V25.2096L26.2128 24.8586L26.465 23.918H46.265Z" fill="white"/>
<path d="M48.5177 24.8586V30.2237H26.1186V25.2096L26.2128 24.8586H48.5177Z" fill="#4C4C78"/>
<path d="M121.46 25.2096H26.1186C26.1186 24.8703 26.1856 24.5343 26.3157 24.2208C26.4459 23.9073 26.6367 23.6225 26.8772 23.3826C27.1177 23.1427 27.4032 22.9524 27.7174 22.8227C28.0316 22.6929 28.3684 22.6262 28.7084 22.6264H118.864C119.204 22.6254 119.542 22.6914 119.857 22.8208C120.172 22.9501 120.458 23.1402 120.699 23.3802C120.94 23.6202 121.132 23.9053 121.262 24.2192C121.393 24.5332 121.46 24.8697 121.46 25.2096Z" fill="#C8CAD7"/>
<path d="M28.7084 24.5645C29.0662 24.5645 29.3562 24.2751 29.3562 23.9181C29.3562 23.561 29.0662 23.2716 28.7084 23.2716C28.3506 23.2716 28.0606 23.561 28.0606 23.9181C28.0606 24.2751 28.3506 24.5645 28.7084 24.5645Z" fill="#EDEDF4"/>
<path d="M30.6504 24.5645C31.0082 24.5645 31.2982 24.2751 31.2982 23.9181C31.2982 23.561 31.0082 23.2716 30.6504 23.2716C30.2927 23.2716 30.0027 23.561 30.0027 23.9181C30.0027 24.2751 30.2927 24.5645 30.6504 24.5645Z" fill="#EDEDF4"/>
<path d="M32.5925 24.5645C32.9502 24.5645 33.2403 24.2751 33.2403 23.9181C33.2403 23.561 32.9502 23.2716 32.5925 23.2716C32.2347 23.2716 31.9447 23.561 31.9447 23.9181C31.9447 24.2751 32.2347 24.5645 32.5925 24.5645Z" fill="#EDEDF4"/>
<path d="M42.9173 27.2206H29.4664V28.4566H42.9173V27.2206Z" fill="#1E91C3"/>
<path opacity="0.5" d="M42.9173 33.2482H29.4664V34.4841H42.9173V33.2482Z" fill="#1E91C3"/>
<path opacity="0.5" d="M42.9173 37.5098H29.4664V38.7457H42.9173V37.5098Z" fill="#1E91C3"/>
<path opacity="0.5" d="M42.9173 41.7715H29.4664V43.0075H42.9173V41.7715Z" fill="#1E91C3"/>
<path opacity="0.5" d="M42.9173 46.0318H29.4664V47.2678H42.9173V46.0318Z" fill="#1E91C3"/>
<path opacity="0.5" d="M42.9173 50.2935H29.4664V51.5294H42.9173V50.2935Z" fill="#1E91C3"/>
<path opacity="0.5" d="M42.9173 54.5551H29.4664V55.7911H42.9173V54.5551Z" fill="#1E91C3"/>
<path opacity="0.5" d="M42.9173 58.8154H29.4664V60.0515H42.9173V58.8154Z" fill="#1E91C3"/>
<path opacity="0.5" d="M116.881 31.7657H57.2774V31.9645H116.881V31.7657Z" fill="#DCE0ED"/>
<path opacity="0.5" d="M116.881 36.3798H57.2774V36.5785H116.881V36.3798Z" fill="#DCE0ED"/>
<path opacity="0.5" d="M116.881 40.9952H57.2774V41.1939H116.881V40.9952Z" fill="#DCE0ED"/>
<path opacity="0.5" d="M116.881 45.6092H57.2774V45.8079H116.881V45.6092Z" fill="#DCE0ED"/>
<path opacity="0.5" d="M116.881 50.2233H57.2774V50.422H116.881V50.2233Z" fill="#DCE0ED"/>
<path opacity="0.5" d="M116.882 50.4206H57.2044V41.3462L62.6774 44.038L68.3416 44.8037L73.3115 43.3081L79.3075 38.6676L82.3234 36.9295L84.5283 36.5056L86.6376 36.6182L90.1075 38.3284L94.8226 41.3263L98.5235 41.8019L101.458 40.7924L107.677 35.7081L110.853 34.5781L114.175 35.0908L116.882 36.65V50.4206Z" fill="#1E91C3"/>
<path d="M67.6062 44.8065C62.2327 44.8065 57.2655 41.5264 57.2044 41.484L57.3518 41.2641C57.4288 41.3158 65.0721 46.363 71.5673 43.8341C73.9381 42.9134 75.6212 41.4787 77.2566 40.0931C78.9597 38.6451 80.5686 37.2767 82.7602 36.6832C85.2823 36.0036 88.0235 36.6196 90.1115 38.3312C91.8956 39.795 95.4504 42.1464 99.2057 41.443C101.12 41.0853 102.734 39.689 104.442 38.212C107.713 35.377 111.106 32.4507 116.959 36.6527L116.804 36.8674C111.115 32.7885 107.809 35.6473 104.612 38.412C102.876 39.9142 101.235 41.3264 99.2509 41.7039C95.3881 42.4259 91.7588 40.0295 89.9389 38.5365C87.9172 36.8779 85.2584 36.2845 82.8265 36.9402C80.6907 37.5178 79.1097 38.8664 77.4252 40.2944C75.7779 41.6947 74.0734 43.1439 71.6642 44.0818C70.3685 44.5733 68.9922 44.8191 67.6062 44.8065Z" fill="#1E91C3"/>
<path d="M85.958 37.9536C86.7739 37.9536 87.4354 37.2934 87.4354 36.4791C87.4354 35.6648 86.7739 35.0047 85.958 35.0047C85.142 35.0047 84.4805 35.6648 84.4805 36.4791C84.4805 37.2934 85.142 37.9536 85.958 37.9536Z" fill="#1E91C3"/>
<path d="M48.9319 68.5204C46.9128 67.3599 46.1443 67.0724 46.1443 67.0711L46.1031 67.042C45.8826 66.8732 45.7074 66.6524 45.5934 66.3995C45.5934 66.3531 45.5934 66.3067 45.5934 66.267V66.2802C45.6266 65.6656 46.0633 65.1079 46.4788 64.6204C46.8328 64.2044 47.1867 63.7889 47.5407 63.3738C47.6627 63.2477 47.756 63.0967 47.8142 62.9313C47.8358 62.8447 47.8456 62.7556 47.8434 62.6664C47.8434 62.6293 47.8434 62.5935 47.8434 62.5577C47.8434 62.2478 47.8288 61.9378 47.8182 61.6304C47.8075 61.3589 47.7385 61.0184 47.4664 60.9681C47.3257 60.9389 47.1398 60.9893 47.0681 60.8687C47.0421 60.8195 47.0355 60.7623 47.0496 60.7084C47.0496 60.7084 47.0496 60.7164 47.0496 60.7203C47.0491 60.7155 47.0491 60.7106 47.0496 60.7058C47.1019 60.4967 47.1357 60.2835 47.1505 60.0686C47.1552 59.9595 47.1404 59.8505 47.1066 59.7467C46.9487 59.2976 46.4084 59.1134 45.9305 59.0287C45.4527 58.9439 44.9164 58.871 44.6164 58.4988C44.5341 58.3746 44.4455 58.2548 44.3509 58.1398C44.2119 58.0175 44.0429 57.9343 43.8611 57.8987C43.2682 57.7521 42.6433 57.8066 42.085 58.0537C41.854 58.157 41.6217 58.2948 41.3681 58.2802C41.1146 58.2656 40.8797 58.0815 40.6195 58.0378C40.2 57.9662 39.7978 58.2749 39.5907 58.6392C39.4679 58.8554 39.4026 59.0994 39.4009 59.3479C39.4009 59.3612 39.4009 59.3757 39.4009 59.389C39.3957 59.6562 39.4936 59.9151 39.6743 60.1123C39.8549 60.3004 40.1243 60.4289 40.2053 60.6753C40.2358 60.776 40.2292 60.8846 40.2558 60.9853C40.2558 60.9985 40.2637 61.0105 40.2677 61.0237L40.2531 61.0409C39.8219 61.5947 39.5883 62.2763 39.5894 62.9777C39.5936 63.6586 39.8144 64.3207 40.2199 64.8683C40.6255 65.4159 41.1949 65.8208 41.846 66.0246C41.846 66.055 41.846 66.0868 41.846 66.12C41.855 66.3188 41.8205 66.5172 41.7449 66.7014C41.6692 66.8855 41.5542 67.051 41.408 67.1864L38.5434 68.3336C38.5434 68.3336 36.8177 68.1296 36.1965 70.6452C36.0969 71.0627 36.0611 71.4928 36.0903 71.921C36.1128 72.3012 36.0597 72.9688 35.6177 73.8325C34.9102 75.2156 35.0708 78.3883 36.5177 78.7023C37.8836 78.999 38.4186 78.8758 38.4743 78.8612V78.9169C38.4518 79.513 38.2354 84.6477 37.4482 85.2756C37.2292 85.4465 37.2704 85.5631 37.4482 85.6412C37.4482 85.6412 37.4482 85.6743 37.4482 85.7339C37.4243 86.1102 37.3022 87.5396 36.7752 88.3543C36.1699 89.2935 36.2389 94.7249 36.2389 94.7249L35.8221 97.9294C35.8221 97.9294 36.0783 99.9086 35.8221 100.254C35.5925 100.563 35.2912 107.886 35.2221 109.473H35.1956C35.0695 109.481 34.9473 109.519 34.8394 109.585C34.7316 109.65 34.6415 109.741 34.577 109.849C34.2345 110.398 33.0531 111.409 33.0531 111.409C32.7969 111.773 31.8465 112.121 31.3447 112.286C31.2775 112.307 31.2126 112.335 31.1509 112.369C30.963 112.471 30.8121 112.63 30.7195 112.822C30.6868 112.879 30.666 112.941 30.6583 113.006C30.6505 113.071 30.656 113.137 30.6743 113.2C30.8071 113.514 33.4712 113.73 34.1456 113.42C34.6766 113.173 36.7792 112.847 37.6527 112.72C37.8112 112.7 37.9585 112.628 38.0715 112.515C38.1844 112.403 38.2566 112.256 38.2766 112.097C38.2849 112.043 38.2822 111.987 38.2685 111.934C38.2548 111.88 38.2305 111.83 38.1969 111.786C38.0296 111.579 37.9434 111.015 37.9049 110.647C37.9758 110.618 38.042 110.579 38.1013 110.53C38.0297 109.388 38.1937 108.244 38.5832 107.168C39.2257 105.472 39.4195 102.33 39.2589 100.287C39.2589 100.287 41.2195 91.8661 42.7633 91.0806C42.7872 91.1097 43.5358 92.0688 43.6314 95.0389C43.727 98.0553 44.8195 100.034 44.8195 100.034C44.8195 100.034 44.3376 105.156 44.8195 107.073L44.1863 110.092C44.1599 110.07 44.1346 110.047 44.1106 110.023C44.1106 110.023 44.1292 110.108 44.1558 110.242L44.1425 110.305L44.169 110.312C44.2407 110.689 44.3469 111.348 44.3018 111.734C44.2766 111.956 44.2155 112.256 44.169 112.553C44.1027 113.018 44.0841 113.47 44.3297 113.568C44.7279 113.73 47.0947 113.951 47.4969 113.435C47.587 113.33 47.6458 113.201 47.6664 113.064C47.687 112.927 47.6688 112.787 47.6137 112.659C47.5846 112.588 47.5452 112.522 47.4969 112.462C47.4969 112.462 46.869 111.438 47.0469 110.716C47.0632 110.645 47.0649 110.572 47.0519 110.501C47.0389 110.43 47.0114 110.363 46.9712 110.302C47.0633 109.16 47.2475 108.026 47.5221 106.912C47.9204 105.401 48.7726 102.086 48.1487 99.9059C48.1248 99.8212 48.0982 99.7364 48.069 99.6542C47.7086 98.4643 47.5882 97.2148 47.7146 95.9781C47.4824 94.9225 47.4824 93.8292 47.7146 92.7736C48.0969 91.0157 48.3664 89.2935 48.3664 89.2935C48.3664 89.2935 48.5788 86.9686 48.3929 85.5432L48.381 85.4518L48.4819 85.4293C48.4819 85.4293 47.9363 83.0103 47.7425 81.471C47.6974 81.1067 47.6376 80.647 47.5726 80.1555C47.7505 80.125 47.9258 80.0807 48.0969 80.023C49.8332 79.4256 50.3788 74.0207 50.3788 74.0207V72.3065C50.3788 72.3065 50.9575 69.6875 48.9319 68.5204ZM35.9987 110.249L35.9137 110.204L35.9987 110.249Z" fill="url(#paint0_linear)"/>
<path d="M47.8845 99.7059C48.6372 101.867 47.7518 105.373 47.3535 106.939C47.0854 108.071 46.9078 109.223 46.8226 110.383C45.9065 110.538 44.9694 110.516 44.0615 110.32L44.7252 107.095C44.2553 105.185 44.7252 100.081 44.7252 100.081C44.7252 100.081 43.6633 98.107 43.565 95.1012C43.4721 92.143 42.742 91.1866 42.7181 91.1561C41.2009 91.943 39.292 100.333 39.292 100.333C39.4487 102.367 39.2602 105.499 38.6283 107.191C38.2475 108.265 38.0872 109.404 38.1571 110.541C37.9381 110.725 37.6327 110.757 37.3035 110.704C36.4075 110.559 35.3336 109.788 35.3336 109.788C35.3336 109.788 35.6788 100.648 35.9296 100.301C36.1805 99.9537 35.9296 97.9838 35.9296 97.9838L36.3372 94.7899C36.3372 94.7899 36.2748 89.373 36.8681 88.4311C37.3832 87.6191 37.5013 86.1937 37.5252 85.8201C37.5252 85.7605 37.5252 85.7274 37.5252 85.7274L38.4332 84.6424C38.4332 84.6424 47.2195 83.98 47.8779 84.6424C48.0398 84.804 48.1434 85.1723 48.1991 85.6333C48.3797 87.0534 48.1726 89.3704 48.1726 89.3704C48.1726 89.3704 47.9071 91.0925 47.5327 92.8452C47.3062 93.8978 47.3062 94.9864 47.5327 96.0391C47.4101 97.2726 47.5296 98.5181 47.8845 99.7059Z" fill="#65617D"/>
<path d="M47.3349 113.437C46.9433 113.954 44.6376 113.735 44.2447 113.569C44.0044 113.47 44.023 113.021 44.0881 112.557C44.1292 112.262 44.1889 111.961 44.2128 111.743C44.2765 111.178 44.0257 110.035 44.0257 110.035C44.0257 110.035 44.5434 110.583 44.6681 110.035C44.697 109.93 44.7539 109.836 44.8327 109.761C44.9116 109.686 45.0093 109.634 45.1155 109.611C45.3844 109.53 45.6736 109.548 45.9305 109.661C46.338 109.838 47.0177 110.214 46.8956 110.721C46.723 111.44 47.3349 112.461 47.3349 112.461C47.3824 112.52 47.4209 112.587 47.4491 112.658C47.5041 112.786 47.5226 112.926 47.5025 113.064C47.4823 113.201 47.4243 113.33 47.3349 113.437Z" fill="#A27772"/>
<path opacity="0.1" d="M47.335 113.437C46.9434 113.954 44.6376 113.735 44.2447 113.569C44.0044 113.47 44.023 113.021 44.0881 112.557C44.335 112.673 44.7518 112.769 45.458 112.704C45.6221 112.688 45.787 112.683 45.9518 112.688C46.451 112.712 46.9512 112.702 47.4491 112.659C47.5039 112.787 47.5222 112.927 47.5021 113.064C47.4819 113.201 47.4241 113.33 47.335 113.437Z" fill="black"/>
<path opacity="0.1" d="M39.292 100.333C39.4487 102.367 39.2602 105.499 38.6283 107.191C38.2475 108.264 38.0872 109.404 38.1571 110.541C37.9381 110.725 37.6327 110.757 37.3035 110.704C37.4934 109.379 38.2991 103.692 38.8168 99.1972C39.4049 94.0771 42.158 90.5547 42.158 90.5547L42.7075 91.1574C41.2009 91.943 39.292 100.333 39.292 100.333Z" fill="black"/>
<path d="M46.3938 67.4222L46.0102 69.3007L44.1345 72.4483L41.8208 71.4613C41.8208 71.4613 38.6748 68.1733 40.6513 67.7044C40.8883 67.6539 41.1121 67.5546 41.3084 67.413C41.696 67.1202 41.8181 66.6963 41.8208 66.2803C41.8052 65.8143 41.6959 65.3561 41.4996 64.933L45.5469 63.6653C45.3795 64.1958 45.2818 64.7457 45.2562 65.3013C45.2257 66.4009 45.6345 66.944 45.9704 67.2023C46.0954 67.3031 46.2394 67.3779 46.3938 67.4222Z" fill="#FBBEBE"/>
<path opacity="0.1" d="M45.5469 63.6653C45.3795 64.1958 45.2817 64.7457 45.2562 65.3013C44.8461 65.787 44.3001 66.1396 43.6882 66.314C43.0762 66.4884 42.426 66.4767 41.8208 66.2803C41.8052 65.8143 41.6959 65.3562 41.4996 64.9331L45.5469 63.6653Z" fill="black"/>
<path d="M46.0102 63.1487C46.0102 63.7804 45.8225 64.3979 45.4708 64.9231C45.1191 65.4483 44.6193 65.8577 44.0345 66.0995C43.4497 66.3412 42.8062 66.4045 42.1854 66.2812C41.5645 66.158 40.9943 65.8538 40.5467 65.4071C40.0991 64.9604 39.7943 64.3913 39.6708 63.7718C39.5473 63.1522 39.6107 62.51 39.8529 61.9264C40.0951 61.3428 40.5054 60.8439 41.0317 60.493C41.558 60.142 42.1768 59.9547 42.8097 59.9547C43.2303 59.9537 43.647 60.0356 44.0357 60.1957C44.4245 60.3558 44.7777 60.5911 45.0751 60.8879C45.3725 61.1847 45.6082 61.5372 45.7687 61.9251C45.9292 62.3131 46.0112 62.7289 46.0102 63.1487Z" fill="#FBBEBE"/>
<path opacity="0.1" d="M46.3938 67.4222L46.0102 69.3007L44.1345 72.4482L41.8208 71.4613C41.8208 71.4613 38.6748 68.1733 40.6513 67.7043C40.8883 67.6538 41.1121 67.5546 41.3084 67.4129C40.9513 68.3919 42.4248 70.428 42.4248 70.428C42.596 70.6797 42.9903 70.5221 42.9903 70.5221C43.9381 70.379 45.6863 67.6553 45.9704 67.2023C46.0954 67.3031 46.2394 67.3779 46.3938 67.4222Z" fill="black"/>
<path opacity="0.1" d="M48.2057 85.6359C47.6482 85.7684 44.5659 86.4427 43.3978 86.2731C42.1115 86.085 39.6093 85.9605 39.6093 85.9605C39.6093 85.9605 38.0163 86.0453 37.5278 85.828C37.5278 85.7684 37.5278 85.7353 37.5278 85.7353L38.4358 84.6503C38.4358 84.6503 47.2221 83.988 47.8805 84.6503C48.0531 84.8067 48.146 85.1736 48.2057 85.6359Z" fill="black"/>
<path d="M42.4248 70.5221C42.4248 70.5221 40.7695 68.2343 41.3934 67.3428L38.5965 68.4874C38.5965 68.4874 36.9133 68.2833 36.3066 70.7897C36.2094 71.2067 36.1741 71.6356 36.2018 72.0628C36.2243 72.4403 36.1726 73.1054 35.7411 73.9664C35.0509 75.3442 35.2102 78.5076 36.6199 78.8202C38.0296 79.1329 38.5341 78.9766 38.5341 78.9766C38.5341 78.9766 38.3456 84.7073 37.5305 85.3644C36.7155 86.0215 39.6106 85.8652 39.6106 85.8652C39.6106 85.8652 42.1115 85.9976 43.3978 86.1791C44.6841 86.3606 48.292 85.5167 48.292 85.5167C48.292 85.5167 47.7611 83.1057 47.5699 81.5717C47.3788 80.0377 46.9434 76.7709 46.9434 76.7709L50.1438 72.4443C50.1438 72.4443 50.708 69.8293 48.7314 68.6715C46.7549 67.5137 46.0102 67.2275 46.0102 67.2275C46.0102 67.2275 44.019 70.4559 42.9889 70.6122C42.9889 70.6149 42.596 70.7738 42.4248 70.5221Z" fill="#FF748E"/>
<path opacity="0.1" d="M38.7531 71.4309C38.7531 71.4309 38.7226 72.4642 38.9111 72.8709C39.0995 73.2776 39.7885 75.5323 39.7885 75.5323H38.2208C38.2208 75.5323 39.0677 74.6248 39.0053 74.1864C38.9429 73.7479 38.7531 71.4309 38.7531 71.4309Z" fill="black"/>
<path d="M43.3978 79.2256C43.3978 79.2256 39.9332 78.3804 39.6106 77.6611C39.2881 76.9418 38.3973 75.3283 38.3973 75.3283L38.7624 74.8368L40.4482 76.1615C40.4482 76.1615 42.4566 77.7512 43.3978 77.9155C44.339 78.0797 43.3978 79.2256 43.3978 79.2256Z" fill="#FBBEBE"/>
<path opacity="0.05" d="M43.3978 79.2256C43.3978 79.2256 39.9332 78.3804 39.6106 77.6611C39.2881 76.9418 38.3973 75.3283 38.3973 75.3283L38.7624 74.8368L40.4482 76.1615C40.4482 76.1615 42.4566 77.7512 43.3978 77.9155C44.339 78.0797 43.3978 79.2256 43.3978 79.2256Z" fill="black"/>
<path d="M46.3938 75.1573V77.0331H46.0912C44.5983 77.0331 43.1301 77.4124 41.8248 78.1353L41.2593 78.4479L41.1066 78.5327L40.1336 76.3469L41.0443 75.5322H41.0907C41.3137 75.5534 42.2761 75.6329 42.6836 75.4964C43.0911 75.36 43.5531 74.948 44.6934 75.2394C45.2562 75.3825 45.7354 76.0117 46.2863 75.8157L46.3938 75.1573Z" fill="#FBBEBE"/>
<path opacity="0.1" d="M49.4217 71.7435L50.0496 72.4483V74.1545C50.0496 74.1545 49.5186 79.5409 47.8221 80.1357C46.1257 80.7305 43.1031 79.7913 43.1031 79.7913C43.1031 79.7913 42.3212 77.7247 42.6863 77.5988C43.0513 77.473 45.9173 76.7192 45.9173 76.7192C45.9173 76.7192 45.8761 73.5597 46.504 72.6205C46.504 72.6205 46.0965 69.6769 47.5075 69.6146C48.9186 69.5524 49.4217 71.7435 49.4217 71.7435Z" fill="black"/>
<path d="M49.5133 71.7435L50.1412 72.4483V74.1545C50.1412 74.1545 49.6102 79.5409 47.9124 80.1357C46.2146 80.7305 43.1947 79.7913 43.1947 79.7913C43.1947 79.7913 42.4128 77.7247 42.7779 77.5988C43.1429 77.473 46.0075 76.7192 46.0075 76.7192C46.0075 76.7192 45.9677 73.5597 46.5956 72.6205C46.5956 72.6205 46.1867 69.6769 47.5991 69.6146C49.0115 69.5524 49.5133 71.7435 49.5133 71.7435Z" fill="#FF748E"/>
<path opacity="0.1" d="M45.1327 64.5052C45.1607 64.2993 45.136 64.0897 45.0611 63.8958C45.0217 63.8 44.9517 63.7199 44.8618 63.6681C44.772 63.6163 44.6674 63.5958 44.5646 63.6097C44.2991 63.6719 44.1796 64.0203 43.9168 64.1038C43.6951 64.174 43.4522 64.0177 43.346 63.811C43.2571 63.5956 43.2199 63.3624 43.2372 63.1301C43.2372 62.8652 43.2372 62.6068 43.2372 62.3445C43.2372 62.0597 43.2279 61.7524 43.0513 61.5285C42.8323 61.2503 42.3186 61.1311 41.9761 61.1403C41.7475 61.1427 41.5282 61.2306 41.3615 61.3867C41.2778 61.4708 41.1763 61.5352 41.0644 61.5751C40.9526 61.615 40.8332 61.6294 40.715 61.6172C40.6109 61.6013 40.5133 61.5562 40.4337 61.4873C40.3541 61.4184 40.2956 61.3284 40.265 61.2278C40.2645 61.2243 40.2645 61.2207 40.265 61.2172C40.5317 60.8653 40.8686 60.5723 41.2544 60.3568C41.6402 60.1413 42.0666 60.0079 42.5066 59.9651C42.9466 59.9222 43.3908 59.9708 43.811 60.1077C44.2313 60.2447 44.6186 60.4671 44.9485 60.7608C45.2783 61.0546 45.5436 61.4134 45.7277 61.8146C45.9117 62.2158 46.0104 62.6506 46.0176 63.0918C46.0248 63.533 45.9404 63.9708 45.7696 64.3778C45.5988 64.7848 45.3453 65.152 45.0252 65.4563C45.0782 65.1415 45.1141 64.8239 45.1327 64.5052Z" fill="black"/>
<path d="M40.7137 61.5232C40.6095 61.507 40.5119 61.462 40.4321 61.3931C40.3523 61.3242 40.2935 61.2344 40.2624 61.1338C40.2372 61.0331 40.2438 60.9245 40.2133 60.8251C40.1403 60.5787 39.8774 60.4502 39.7009 60.2634C39.3478 59.8898 39.3704 59.2738 39.6199 58.8234C39.823 58.4604 40.2146 58.1544 40.6248 58.2246C40.8783 58.2697 41.0973 58.4498 41.3549 58.4657C41.6124 58.4816 41.8288 58.3439 42.0544 58.2405C42.5981 57.9947 43.2094 57.9405 43.788 58.0869C43.9661 58.1222 44.1313 58.205 44.2659 58.3266C44.3573 58.4412 44.4424 58.5606 44.5208 58.6843C44.8128 59.0566 45.3372 59.1294 45.8031 59.2142C46.269 59.299 46.7973 59.4792 46.95 59.9309C47.0522 60.2276 46.95 60.5496 46.8956 60.8582C46.8753 60.9215 46.8795 60.99 46.9075 61.0503C46.9805 61.1708 47.1624 61.1205 47.3057 61.1483C47.5712 61.204 47.6376 61.5458 47.6469 61.8107C47.6593 62.118 47.6677 62.4271 47.6721 62.738C47.6799 62.8531 47.671 62.9686 47.6456 63.0811C47.5883 63.2416 47.4978 63.3883 47.3801 63.5117L46.3434 64.7543C45.8841 65.3053 45.3969 65.9465 45.4885 66.6579C45.2708 66.7546 45.0133 66.5678 44.9416 66.34C44.8699 66.1121 44.927 65.8684 44.9761 65.6352C45.0596 65.232 45.1141 64.8234 45.1394 64.4125C45.1673 64.2061 45.1427 63.9961 45.0677 63.8018C45.0281 63.7059 44.9578 63.6257 44.8677 63.574C44.7776 63.5222 44.6729 63.5017 44.5699 63.5156C44.3044 63.5779 44.1863 63.9263 43.9234 64.0098C43.7018 64.0813 43.4588 63.9236 43.3526 63.717C43.2644 63.5014 43.2271 63.2684 43.2438 63.0361V62.2505C43.2438 61.9657 43.2345 61.6584 43.058 61.4345C42.8403 61.1563 42.3252 61.0371 41.9827 61.0463C41.7542 61.0487 41.5348 61.1366 41.3681 61.2927C41.2836 61.3779 41.1807 61.4429 41.0674 61.4829C40.9541 61.5228 40.8332 61.5366 40.7137 61.5232Z" fill="#7C5C5C"/>
<path opacity="0.1" d="M41.4359 71.3527L42.4195 75.3799C42.4195 75.3799 43.1933 75.3759 41.4359 71.3527Z" fill="black"/>
<path opacity="0.1" d="M44.7942 70.6783C44.7942 70.6783 43.5066 72.782 44.0097 74.9559L44.2487 74.9731C44.2487 74.9731 43.8212 73.9663 44.7942 70.6783Z" fill="black"/>
<path opacity="0.1" d="M45.6093 82.5786C45.6093 82.5786 47.1889 82.0566 47.3044 83.2674C47.3044 83.2674 47.0057 82.4368 45.6093 82.5786Z" fill="black"/>
<path opacity="0.1" d="M41.0442 75.6263C41.0442 75.6263 40.731 77.8188 41.2951 78.6958C40.4099 79.007 39.4704 79.1345 38.5341 79.0707L38.3456 75.6263H41.0442Z" fill="black"/>
<path opacity="0.1" d="M41.2593 78.448L41.1066 78.5328L40.1336 76.347L41.0443 75.5323H41.0907C41.0761 75.6383 40.8226 77.5207 41.2593 78.448Z" fill="black"/>
<path d="M41.0442 75.5323C41.0442 75.5323 40.731 77.7247 41.2951 78.6017C40.4099 78.9129 39.4704 79.0405 38.5341 78.9766L37.4363 75.5323H41.0442Z" fill="#FF748E"/>
<path d="M38.3296 112.104C38.3116 112.26 38.2419 112.406 38.1315 112.518C38.0212 112.631 37.8765 112.703 37.7203 112.724C36.8695 112.857 34.8159 113.174 34.2982 113.421C33.6345 113.735 31.0354 113.515 30.9093 113.202C30.8916 113.139 30.8865 113.074 30.8942 113.009C30.902 112.944 30.9224 112.882 30.9544 112.825C31.0151 112.7 31.1004 112.589 31.205 112.498C31.3097 112.407 31.4317 112.338 31.5637 112.295C32.0549 112.131 32.9814 111.785 33.231 111.422C33.231 111.422 34.3858 110.412 34.715 109.868C34.7768 109.761 34.8644 109.67 34.9698 109.605C35.0752 109.539 35.1951 109.501 35.319 109.493C35.5938 109.48 35.8991 109.619 36.0252 110.219C36.0252 110.219 37.5305 111.076 37.938 110.325C37.938 110.325 38.0004 111.479 38.25 111.795C38.283 111.839 38.307 111.889 38.3207 111.942C38.3344 111.995 38.3374 112.05 38.3296 112.104Z" fill="#A27772"/>
<path opacity="0.1" d="M38.3297 112.104C38.3116 112.26 38.2419 112.406 38.1316 112.518C38.0212 112.631 37.8765 112.703 37.7204 112.724C36.8695 112.857 34.8159 113.175 34.2982 113.421C33.6345 113.735 31.0354 113.515 30.9093 113.202C30.8916 113.14 30.8865 113.074 30.8942 113.009C30.902 112.944 30.9224 112.882 30.9544 112.825C31.0439 112.634 31.1911 112.477 31.3752 112.374C31.8 112.655 32.7425 112.931 34.8159 112.608C36.7938 112.299 37.7721 111.997 38.25 111.792C38.2835 111.836 38.3079 111.886 38.3216 111.94C38.3352 111.993 38.338 112.049 38.3297 112.104Z" fill="black"/>
<g opacity="0.1">
<path opacity="0.1" d="M46.8916 60.9005C46.8922 60.8953 46.8922 60.8899 46.8916 60.8846C46.9537 60.653 46.9862 60.4144 46.9885 60.1746C46.9685 60.3664 46.9361 60.5566 46.8916 60.7442C46.8797 60.7957 46.8797 60.8491 46.8916 60.9005Z" fill="black"/>
<path opacity="0.1" d="M45.061 63.8309C45.1102 63.9439 45.1364 64.0655 45.138 64.1886C45.1523 64.0188 45.1259 63.8481 45.061 63.6905C45.0215 63.5945 44.9512 63.5142 44.8612 63.4622C44.7711 63.4102 44.6664 63.3894 44.5633 63.403C44.2978 63.4653 44.1796 63.815 43.9168 63.8985C43.6951 63.9687 43.4522 63.8111 43.346 63.6044C43.2565 63.3891 43.2192 63.1558 43.2372 62.9235C43.2372 62.6585 43.2372 62.4002 43.2372 62.1392C43.2372 61.8544 43.2279 61.5471 43.0513 61.3232C42.8323 61.0437 42.3186 60.9258 41.9748 60.9337C41.7464 60.9363 41.5274 61.0247 41.3615 61.1814C41.2777 61.2653 41.1761 61.3294 41.0643 61.3691C40.9524 61.4087 40.8331 61.4229 40.715 61.4106C40.6105 61.3952 40.5125 61.3504 40.4326 61.2814C40.3527 61.2124 40.2941 61.1221 40.2637 61.0211C40.2372 60.9205 40.2451 60.8132 40.2146 60.7125C40.1416 60.4661 39.8788 60.3389 39.7022 60.1521C39.5375 59.9699 39.4434 59.735 39.4367 59.4897C39.4241 59.6345 39.4412 59.7804 39.4868 59.9184C39.5324 60.0564 39.6057 60.1837 39.7022 60.2925C39.8788 60.4793 40.1416 60.6078 40.2146 60.8542C40.2451 60.9536 40.2372 61.0622 40.2637 61.1629C40.2947 61.2636 40.3534 61.3535 40.4333 61.4224C40.5131 61.4913 40.6107 61.5363 40.715 61.5524C40.8332 61.5645 40.9526 61.5501 41.0644 61.5102C41.1763 61.4703 41.2778 61.406 41.3615 61.3219C41.5281 61.1675 41.7461 61.0802 41.9734 61.0768C42.3172 61.0662 42.831 61.1881 43.05 61.4663C43.2265 61.6901 43.2345 61.9962 43.2358 62.2823C43.2358 62.5473 43.2358 62.8056 43.2358 63.0665C43.2178 63.2993 43.2551 63.5331 43.3447 63.7488C43.4509 63.9555 43.6938 64.1118 43.9155 64.0416C44.181 63.9581 44.2938 63.6097 44.5619 63.5461C44.6649 63.5324 44.7695 63.5529 44.8597 63.6043C44.9499 63.6558 45.0206 63.7354 45.061 63.8309Z" fill="black"/>
<path opacity="0.1" d="M47.6403 62.9686C47.5827 63.1293 47.4923 63.2764 47.3748 63.4004C47.0279 63.8137 46.6823 64.2275 46.3381 64.6417C45.9027 65.165 45.4407 65.7704 45.4739 66.438C45.5058 65.826 45.9332 65.2696 46.3381 64.7834L47.3748 63.5408C47.4923 63.4173 47.5827 63.2707 47.6403 63.1103C47.6658 62.9974 47.6748 62.8814 47.6668 62.7659C47.6661 62.8342 47.6572 62.9023 47.6403 62.9686Z" fill="black"/>
<path opacity="0.1" d="M44.935 66.2287C44.9178 66.1741 44.9071 66.1176 44.9031 66.0605C44.8944 66.1645 44.9052 66.2691 44.935 66.3691C45.0053 66.597 45.2642 66.7838 45.4819 66.6871C45.4819 66.6407 45.4726 66.5943 45.4713 66.5546C45.2562 66.6407 45 66.4513 44.935 66.2287Z" fill="black"/>
</g>
<path opacity="0.1" d="M34.5133 110.148C34.5133 110.148 34.8411 110.722 36.0305 110.215L34.5133 110.148Z" fill="black"/>
<path opacity="0.1" d="M44.5553 110.285C44.5553 110.285 45.5814 111.49 46.873 110.683L44.5553 110.285Z" fill="black"/>
<path opacity="0.1" d="M47.5394 96.0417C47.5394 96.0417 46.8146 96.4935 46.7907 96.7518C46.7668 97.0101 47.165 96.5637 47.165 96.5637L47.5394 96.0417Z" fill="black"/>
<path opacity="0.1" d="M47.8248 99.5046C47.5733 99.7142 47.26 99.8361 46.9327 99.8517C46.3912 99.8756 46.4363 100.58 46.7907 100.368C47.1451 100.156 47.8248 99.5046 47.8248 99.5046Z" fill="black"/>
<path opacity="0.1" d="M47.9628 99.9563C47.9628 99.9563 47.615 101.66 47.3323 101.331L47.9628 99.9563Z" fill="black"/>
<g opacity="0.5">
<path opacity="0.5" d="M71.3057 60.7588H62.5447V62.6134H71.3057V60.7588Z" fill="#DCE0ED"/>
<path opacity="0.5" d="M91.423 60.7588H82.6619V62.6134H91.423V60.7588Z" fill="#DCE0ED"/>
<path opacity="0.5" d="M111.54 60.7588H102.779V62.6134H111.54V60.7588Z" fill="#DCE0ED"/>
</g>
<path opacity="0.1" d="M126.469 106.752C128.443 106.752 130.043 106.482 130.043 106.149C130.043 105.817 128.443 105.547 126.469 105.547C124.494 105.547 122.894 105.817 122.894 106.149C122.894 106.482 124.494 106.752 126.469 106.752Z" fill="#1E91C3"/>
<path opacity="0.1" d="M15.2947 114.363C17.269 114.363 18.8695 114.093 18.8695 113.76C18.8695 113.427 17.269 113.157 15.2947 113.157C13.3204 113.157 11.7199 113.427 11.7199 113.76C11.7199 114.093 13.3204 114.363 15.2947 114.363Z" fill="#1E91C3"/>
<path d="M118.645 113.51C121.593 113.51 123.982 113.106 123.982 112.609C123.982 112.111 121.593 111.708 118.645 111.708C115.697 111.708 113.307 112.111 113.307 112.609C113.307 113.106 115.697 113.51 118.645 113.51Z" fill="#1E91C3"/>
<path d="M120.851 111.137C121.095 110.939 121.272 110.671 121.359 110.37C121.426 110.065 121.296 109.701 121.005 109.59C120.678 109.465 120.329 109.69 120.064 109.92C119.798 110.149 119.497 110.407 119.15 110.359C119.328 110.198 119.461 109.994 119.537 109.766C119.612 109.538 119.627 109.295 119.581 109.06C119.566 108.962 119.524 108.871 119.461 108.795C119.279 108.602 118.951 108.684 118.734 108.836C118.043 109.321 117.851 110.256 117.847 111.099C117.778 110.795 117.836 110.479 117.835 110.171C117.834 109.864 117.747 109.509 117.485 109.346C117.321 109.259 117.138 109.216 116.954 109.221C116.643 109.21 116.296 109.24 116.085 109.467C115.82 109.749 115.89 110.22 116.119 110.526C116.347 110.832 116.697 111.03 117.017 111.244C117.274 111.398 117.494 111.606 117.66 111.855C117.679 111.89 117.694 111.927 117.706 111.965H119.652C120.087 111.744 120.49 111.465 120.851 111.137Z" fill="#1E91C3"/>
<path d="M15.458 104.818C15.458 104.818 16.188 105.771 15.1221 107.203C14.0562 108.635 13.1774 109.852 13.5292 110.749C13.5292 110.749 15.1381 108.08 16.4496 108.043C17.7611 108.005 16.8982 106.424 15.458 104.818Z" fill="#1E91C3"/>
<path opacity="0.1" d="M15.458 104.818C15.5218 104.91 15.5723 105.011 15.608 105.118C16.885 106.614 17.5646 108.012 16.3367 108.046C15.1938 108.08 13.8226 110.12 13.4934 110.635C13.5042 110.675 13.517 110.714 13.5319 110.753C13.5319 110.753 15.1407 108.084 16.4522 108.046C17.7637 108.009 16.8982 106.424 15.458 104.818Z" fill="black"/>
<path d="M16.8133 106.032C16.8133 106.367 16.7761 106.638 16.7296 106.638C16.6832 106.638 16.646 106.373 16.646 106.032C16.646 105.69 16.6925 105.854 16.7389 105.854C16.7854 105.854 16.8133 105.696 16.8133 106.032Z" fill="#FFD037"/>
<path d="M17.2792 106.432C16.9845 106.592 16.727 106.689 16.7058 106.648C16.6845 106.606 16.9035 106.444 17.1982 106.283C17.4929 106.123 17.3774 106.24 17.3987 106.283C17.4199 106.327 17.5739 106.271 17.2792 106.432Z" fill="#FFD037"/>
<path d="M11.6071 104.818C11.6071 104.818 10.877 105.771 11.9429 107.203C13.0088 108.635 13.8876 109.852 13.5358 110.749C13.5358 110.749 11.9283 108.08 10.6155 108.043C9.30264 108.005 10.1668 106.424 11.6071 104.818Z" fill="#1E91C3"/>
<path opacity="0.1" d="M11.6071 104.818C11.5432 104.91 11.4927 105.011 11.4571 105.118C10.1801 106.614 9.50044 108.012 10.7283 108.046C11.8712 108.08 13.2425 110.12 13.5717 110.635C13.561 110.675 13.5477 110.715 13.5319 110.753C13.5319 110.753 11.9243 108.084 10.6115 108.046C9.29867 108.009 10.1668 106.424 11.6071 104.818Z" fill="black"/>
<path d="M10.2504 106.032C10.2504 106.367 10.2889 106.638 10.3354 106.638C10.3819 106.638 10.419 106.373 10.419 106.032C10.419 105.69 10.3726 105.854 10.3261 105.854C10.2796 105.854 10.2504 105.696 10.2504 106.032Z" fill="#FFD037"/>
<path d="M9.78584 106.432C10.0805 106.592 10.3367 106.689 10.3593 106.648C10.3819 106.606 10.1615 106.444 9.86681 106.283C9.57212 106.123 9.68761 106.24 9.66504 106.283C9.64248 106.327 9.49115 106.271 9.78584 106.432Z" fill="#FFD037"/>
<path d="M10.4867 110.628C10.4867 110.628 12.5257 110.565 13.1416 110.129C13.7575 109.693 16.2783 109.17 16.431 109.871C16.5836 110.571 19.4947 113.353 17.1929 113.372C14.8912 113.39 11.8447 113.014 11.2314 112.642C10.6181 112.27 10.4867 110.628 10.4867 110.628Z" fill="#A8A8A8"/>
<path opacity="0.2" d="M17.2288 113.128C14.927 113.147 11.8792 112.77 11.2659 112.398C10.8 112.113 10.6128 111.095 10.5518 110.626H10.4827C10.4827 110.626 10.6155 112.266 11.2261 112.639C11.8367 113.013 14.8858 113.388 17.1876 113.369C17.8513 113.369 18.081 113.128 18.069 112.778C17.9761 112.993 17.7226 113.124 17.2288 113.128Z" fill="black"/>
<path d="M61.9248 73.7107C61.9248 71.003 64.1323 68.9232 66.8469 68.9232H66.8854V67.6912H66.8469C63.4513 67.6912 60.6903 70.3234 60.6903 73.7107C60.6902 74.5871 60.8784 75.4532 61.2423 76.2508C61.6061 77.0483 62.1372 77.7588 62.7996 78.3341L63.6743 77.4611C63.1264 77.001 62.6859 76.427 62.3837 75.7791C62.0815 75.1313 61.9248 74.4253 61.9248 73.7107Z" fill="#1E91C3"/>
<path opacity="0.5" d="M67.0088 67.6925V68.9245C67.7994 68.9298 68.5769 69.125 69.2758 69.4937C69.9747 69.8624 70.5743 70.3938 71.0238 71.0427C71.4733 71.6917 71.7596 72.4391 71.8583 73.2219C71.957 74.0046 71.8653 74.7996 71.591 75.5394C71.3166 76.2793 70.8677 76.9423 70.2822 77.4724C69.6967 78.0024 68.9918 78.3839 68.2273 78.5845C67.4627 78.7851 66.661 78.7989 65.89 78.6248C65.119 78.4507 64.4013 78.0938 63.7978 77.5842L62.9204 78.4572C63.668 79.1096 64.5627 79.5717 65.5282 79.8041C66.4936 80.0365 67.5011 80.0322 68.4645 79.7917C69.4279 79.5512 70.3187 79.0815 71.0608 78.4229C71.8029 77.7642 72.3742 76.9361 72.726 76.0093C73.0778 75.0825 73.1996 74.0844 73.081 73.1004C72.9624 72.1164 72.6069 71.1757 72.0449 70.3585C71.483 69.5414 70.7311 68.8721 69.8537 68.4078C68.9763 67.9436 67.9993 67.6982 67.0062 67.6925H67.0088Z" fill="#1E91C3"/>
<path opacity="0.5" d="M107.363 68.8609C110.076 68.8609 112.16 71.0639 112.16 73.773C112.16 73.7849 112.16 73.7982 112.16 73.8114H113.395C113.395 73.7982 113.395 73.7849 113.395 73.773C113.395 70.3857 110.757 67.6289 107.363 67.6289C106.485 67.6286 105.617 67.8164 104.817 68.1795C104.018 68.5427 103.306 69.0727 102.73 69.7339L103.605 70.6069C104.066 70.0601 104.641 69.6205 105.29 69.3189C105.939 69.0173 106.647 68.861 107.363 68.8609Z" fill="#1E91C3"/>
<path d="M113.393 73.9346H112.159C112.154 74.7235 111.958 75.4995 111.588 76.1969C111.219 76.8944 110.687 77.4927 110.036 77.9414C109.386 78.39 108.637 78.6756 107.853 78.7741C107.068 78.8727 106.272 78.7812 105.53 78.5074C104.789 78.2336 104.125 77.7856 103.594 77.2012C103.062 76.6169 102.68 75.9135 102.479 75.1505C102.278 74.3875 102.264 73.5875 102.439 72.818C102.613 72.0485 102.971 71.3323 103.481 70.73L102.611 69.8571C101.957 70.6032 101.494 71.4961 101.261 72.4596C101.028 73.423 101.032 74.4284 101.273 75.3899C101.514 76.3514 101.985 77.2404 102.645 77.981C103.305 78.7215 104.135 79.2917 105.064 79.6428C105.992 79.9938 106.992 80.1154 107.978 79.997C108.964 79.8787 109.907 79.5239 110.726 78.9631C111.545 78.4022 112.215 77.6519 112.681 76.7763C113.146 75.9007 113.392 74.9257 113.397 73.9346H113.393Z" fill="#1E91C3"/>
<path opacity="0.5" d="M89.469 68.0528L89.2234 69.2795C91.0301 70.0068 92.1849 71.774 92.1849 73.8339C92.1852 74.7191 91.9457 75.588 91.4918 76.3485C91.0378 77.109 90.3863 77.733 89.6062 78.1543C88.8261 78.5756 87.9463 78.7787 87.0601 78.7419C86.1738 78.7052 85.3139 78.4301 84.5715 77.9457C83.829 77.4613 83.2316 76.7857 82.8424 75.9902C82.4532 75.1947 82.2866 74.3091 82.3604 73.4269C82.4342 72.5448 82.7456 71.6989 83.2615 70.9788C83.7775 70.2588 84.4789 69.6913 85.2916 69.3365L84.7447 68.2303C83.7358 68.6835 82.8681 69.3998 82.2327 70.3037C81.5974 71.2076 81.2179 72.2657 81.1344 73.3666C81.0508 74.4676 81.2662 75.5707 81.7579 76.5598C82.2496 77.5489 82.9993 78.3874 83.9283 78.9871C84.8572 79.5868 85.931 79.9255 87.0365 79.9675C88.1421 80.0095 89.2385 79.7533 90.2105 79.2259C91.1825 78.6985 91.994 77.9193 92.5596 76.9704C93.1253 76.0215 93.4241 74.938 93.4248 73.8339C93.4248 71.1752 91.8478 68.9072 89.469 68.0528Z" fill="#1E91C3"/>
<path d="M87.4235 68.8516C88.013 68.8514 88.5964 68.9723 89.1372 69.2067L89.3827 67.9813C88.7576 67.7411 88.0933 67.6185 87.4235 67.6196C86.5537 67.6196 85.694 67.8043 84.9013 68.1614L85.4535 69.2649C86.0742 68.9918 86.7451 68.851 87.4235 68.8516Z" fill="#1E91C3"/>
<defs>
<linearGradient id="paint0_linear" x1="40.5531" y1="113.76" x2="40.5531" y2="57.8139" gradientUnits="userSpaceOnUse">
<stop stop-color="#808080" stop-opacity="0.25"/>
<stop offset="0.54" stop-color="#808080" stop-opacity="0.12"/>
<stop offset="1" stop-color="#808080" stop-opacity="0.1"/>
</linearGradient>
</defs>
</svg>
