<svg width="136" height="136" viewBox="0 0 136 136" fill="none" xmlns="http://www.w3.org/2000/svg">
<path d="M136 136V0L0 136H136Z" fill="#4FE38A"/>
<path fill-rule="evenodd" clip-rule="evenodd" d="M94 81C85.16 81 78 88.16 78 97C78 104.08 82.58 110.06 88.94 112.18C89.74 112.32 90.04 111.84 90.04 111.42C90.04 111.04 90.02 109.78 90.02 108.44C86 109.18 84.96 107.46 84.64 106.56C84.46 106.1 83.68 104.68 83 104.3C82.44 104 81.64 103.26 82.98 103.24C84.24 103.22 85.14 104.4 85.44 104.88C86.88 107.3 89.18 106.62 90.1 106.2C90.24 105.16 90.66 104.46 91.12 104.06C87.56 103.66 83.84 102.28 83.84 96.16C83.84 94.42 84.46 92.98 85.48 91.86C85.32 91.46 84.76 89.82 85.64 87.62C85.64 87.62 86.98 87.2 90.04 89.26C91.32 88.9 92.68 88.72 94.04 88.72C95.4 88.72 96.76 88.9 98.04 89.26C101.1 87.18 102.44 87.62 102.44 87.62C103.32 89.82 102.76 91.46 102.6 91.86C103.62 92.98 104.24 94.4 104.24 96.16C104.24 102.3 100.5 103.66 96.94 104.06C97.52 104.56 98.02 105.52 98.02 107.02C98.02 109.16 98 110.88 98 111.42C98 111.84 98.3 112.34 99.1 112.18C105.42 110.06 110 104.06 110 97C110 88.16 102.84 81 94 81Z" fill="#1E91C3"/>
</svg>
