<svg width="149" height="110" viewBox="0 0 149 110" fill="none" xmlns="http://www.w3.org/2000/svg">
<g clip-path="url(#clip0)">
<rect width="149" height="110" fill="white"/>
<path opacity="0.1" d="M1.60938 58.5401C3.96708 68.6428 8.95819 77.3758 16.8462 81.6089C33.2388 90.4059 70.2083 85.8692 97.8 80.6558C111.742 78.0304 124.397 70.7776 133.728 60.065L1.60938 58.5401Z" fill="#1E91C3"/>
<path opacity="0.1" d="M146.297 10.9891H131.158C130.811 10.9891 130.478 10.8509 130.233 10.6049C129.988 10.3588 129.85 10.0252 129.85 9.67724C129.85 9.32932 129.988 8.99564 130.233 8.74962C130.478 8.5036 130.811 8.36539 131.158 8.36539H133.775C133.428 8.36539 133.096 8.22717 132.85 7.98115C132.605 7.73513 132.467 7.40145 132.467 7.05353C132.467 6.7056 132.605 6.37192 132.85 6.1259C133.096 5.87988 133.428 5.74167 133.775 5.74167H131.907C131.56 5.74167 131.227 5.60346 130.981 5.35743C130.736 5.11141 130.598 4.77774 130.598 4.42981C130.598 4.08188 130.736 3.74821 130.981 3.50219C131.227 3.25617 131.56 3.11795 131.907 3.11795H139.808C138.055 2.30102 136.005 1.71964 133.645 1.41465C112.1 -1.3602 104.407 0.475176 101.694 2.36774C98.346 4.696 94.6111 6.40883 90.6196 7.23393C77.3262 9.98291 52.4658 13.2915 29.9331 6.17464C18.734 2.6346 10.41 8.61455 5.42163 18.6029H148.925C148.738 15.7001 148.177 13.0205 147.147 10.6732C146.911 10.8773 146.609 10.9894 146.297 10.9891Z" fill="#1E91C3"/>
<path opacity="0.1" d="M0.324595 37.4564C-0.256942 43.3317 -0.0596558 49.2583 0.911305 55.0817L133.828 59.9547C137.528 55.6877 140.635 50.9381 143.064 45.8354L0.324595 37.4564ZM52.8949 50.0303H50.2778C50.6249 50.0303 50.9577 50.1685 51.2031 50.4146C51.4485 50.6606 51.5864 50.9943 51.5864 51.3422C51.5864 51.6901 51.4485 52.0238 51.2031 52.2698C50.9577 52.5158 50.6249 52.654 50.2778 52.654H35.1388C34.7917 52.654 34.4589 52.5158 34.2135 52.2698C33.9681 52.0238 33.8302 51.6901 33.8302 51.3422C33.8302 50.9943 33.9681 50.6606 34.2135 50.4146C34.4589 50.1685 34.7917 50.0303 35.1388 50.0303H37.7559C37.4089 50.0303 37.076 49.8921 36.8306 49.6461C36.5852 49.4001 36.4473 49.0664 36.4473 48.7185C36.4473 48.3705 36.5852 48.0369 36.8306 47.7908C37.076 47.5448 37.4089 47.4066 37.7559 47.4066H35.8871C35.5401 47.4066 35.2072 47.2684 34.9618 47.0224C34.7164 46.7763 34.5786 46.4427 34.5786 46.0947C34.5786 45.7468 34.7164 45.4131 34.9618 45.1671C35.2072 44.9211 35.5401 44.7829 35.8871 44.7829H51.0261C51.3732 44.7829 51.706 44.9211 51.9514 45.1671C52.1968 45.4131 52.3347 45.7468 52.3347 46.0947C52.3347 46.4427 52.1968 46.7763 51.9514 47.0224C51.706 47.2684 51.3732 47.4066 51.0261 47.4066H52.8949C53.242 47.4066 53.5748 47.5448 53.8202 47.7908C54.0656 48.0369 54.2035 48.3705 54.2035 48.7185C54.2035 49.0664 54.0656 49.4001 53.8202 49.6461C53.5748 49.8921 53.242 50.0303 52.8949 50.0303Z" fill="#1E91C3"/>
<path opacity="0.1" d="M148.932 18.6928L3.81771 22.2329C2.05351 26.7804 0.889594 31.923 0.346344 37.2549H146.39C147.343 34.1236 148.048 30.9217 148.499 27.6791C148.933 24.5448 149.107 21.5153 148.932 18.6928ZM29.8068 30.2878H27.1897C27.5367 30.2878 27.8696 30.426 28.115 30.672C28.3604 30.9181 28.4983 31.2517 28.4983 31.5997C28.4983 31.9476 28.3604 32.2813 28.115 32.5273C27.8696 32.7733 27.5367 32.9115 27.1897 32.9115H12.0507C11.7036 32.9115 11.3708 32.7733 11.1254 32.5273C10.88 32.2813 10.7421 31.9476 10.7421 31.5997C10.7421 31.2517 10.88 30.9181 11.1254 30.672C11.3708 30.426 11.7036 30.2878 12.0507 30.2878H14.6678C14.3207 30.2878 13.9879 30.1496 13.7425 29.9036C13.4971 29.6576 13.3592 29.3239 13.3592 28.976C13.3592 28.628 13.4971 28.2943 13.7425 28.0483C13.9879 27.8023 14.3207 27.6641 14.6678 27.6641H12.799C12.4519 27.6641 12.1191 27.5259 11.8737 27.2799C11.6283 27.0338 11.4904 26.7002 11.4904 26.3522C11.4904 26.0043 11.6283 25.6706 11.8737 25.4246C12.1191 25.1786 12.4519 25.0404 12.799 25.0404H27.938C28.2851 25.0404 28.6179 25.1786 28.8633 25.4246C29.1087 25.6706 29.2466 26.0043 29.2466 26.3522C29.2466 26.7002 29.1087 27.0338 28.8633 27.2799C28.6179 27.5259 28.2851 27.6641 27.938 27.6641H29.8068C30.1539 27.6641 30.4867 27.8023 30.7321 28.0483C30.9775 28.2943 31.1154 28.628 31.1154 28.976C31.1154 29.3239 30.9775 29.6576 30.7321 29.9036C30.4867 30.1496 30.1539 30.2878 29.8068 30.2878Z" fill="#1E91C3"/>
<g opacity="0.1">
<path opacity="0.1" d="M92.0198 84.863C92.0198 84.863 95.8498 75.4002 103.002 71.8901C106.012 70.4388 108.472 68.0476 110.011 65.0755C110.73 63.6574 111.318 62.1762 111.767 60.6505" stroke="#535461" stroke-width="2" stroke-miterlimit="10"/>
<path opacity="0.1" d="M116.261 58.4107C115.515 59.3502 111.657 60.7253 111.657 60.7253C111.657 60.7253 112.121 56.6407 112.867 55.708C113.237 55.2955 113.75 55.0402 114.302 54.9941C114.854 54.948 115.402 55.1146 115.835 55.46C116.268 55.8053 116.554 56.3033 116.633 56.8524C116.712 57.4015 116.58 57.9603 116.262 58.4148L116.261 58.4107Z" fill="#1E91C3"/>
<path opacity="0.1" d="M114.937 65.8529C113.801 66.2355 109.819 65.2838 109.819 65.2838C109.819 65.2838 112.42 62.1141 113.556 61.7315C114.089 61.5896 114.656 61.6565 115.143 61.9188C115.629 62.181 115.997 62.6188 116.173 63.1433C116.348 63.6679 116.319 64.2398 116.089 64.743C115.86 65.2463 115.448 65.6431 114.937 65.8529Z" fill="#1E91C3"/>
<path opacity="0.1" d="M107.758 74.6486C106.586 74.4049 103.626 71.5674 103.626 71.5674C103.626 71.5674 107.467 70.1473 108.641 70.391C109.172 70.5393 109.626 70.8845 109.913 71.3564C110.2 71.8284 110.297 72.392 110.185 72.933C110.072 73.474 109.759 73.9521 109.309 74.2704C108.858 74.5887 108.304 74.7234 107.758 74.6472V74.6486Z" fill="#1E91C3"/>
<path opacity="0.1" d="M100.831 80.0784C99.6348 80.0362 96.2395 77.742 96.2395 77.742C96.2395 77.742 99.7869 75.6956 100.983 75.7337C101.281 75.7244 101.577 75.7764 101.853 75.8865C102.13 75.9966 102.381 76.1624 102.591 76.3737C102.801 76.585 102.965 76.8373 103.074 77.1149C103.183 77.3925 103.233 77.6895 103.223 77.9876C103.213 78.2856 103.141 78.5784 103.013 78.8476C102.885 79.1169 102.704 79.357 102.479 79.553C102.255 79.749 101.993 79.8968 101.71 79.9872C101.426 80.0776 101.127 80.1086 100.831 80.0784Z" fill="#1E91C3"/>
<path opacity="0.1" d="M106.112 62.6247C106.265 63.8161 108.858 66.9912 108.858 66.9912C108.858 66.9912 110.565 63.2605 110.413 62.0692C110.307 61.5264 109.999 61.0443 109.551 60.7208C109.104 60.3974 108.55 60.2567 108.003 60.3274C107.456 60.398 106.956 60.6748 106.604 61.1014C106.253 61.528 106.077 62.0726 106.112 62.6247Z" fill="#1E91C3"/>
<path opacity="0.1" d="M98.0907 69.0772C98.5918 70.1664 102.014 72.4198 102.014 72.4198C102.014 72.4198 102.53 68.3474 102.029 67.2581C101.922 66.9801 101.76 66.727 101.552 66.5145C101.343 66.302 101.094 66.1345 100.819 66.0225C100.543 65.9104 100.248 65.8562 99.951 65.8631C99.6539 65.87 99.3614 65.9379 99.0916 66.0626C98.8217 66.1873 98.5803 66.3662 98.3821 66.5882C98.184 66.8102 98.0333 67.0706 97.9395 67.3532C97.8457 67.6359 97.8107 67.9348 97.8367 68.2316C97.8627 68.5283 97.9491 68.8166 98.0907 69.0785V69.0772Z" fill="#1E91C3"/>
<path opacity="0.1" d="M91.1533 76.4213C91.463 77.5814 94.4576 80.3807 94.4576 80.3807C94.4576 80.3807 95.6528 76.4554 95.3418 75.2953C95.164 74.7721 94.7944 74.3362 94.308 74.0759C93.8215 73.8157 93.2546 73.7505 92.7221 73.8937C92.1895 74.0369 91.7311 74.3776 91.4399 74.847C91.1486 75.3163 91.0462 75.8791 91.1533 76.4213Z" fill="#1E91C3"/>
<path opacity="0.25" d="M116.261 58.4107C115.515 59.3502 111.657 60.7253 111.657 60.7253C111.657 60.7253 112.121 56.6407 112.867 55.708C113.237 55.2955 113.75 55.0402 114.302 54.9941C114.854 54.948 115.402 55.1146 115.835 55.46C116.268 55.8053 116.554 56.3033 116.633 56.8524C116.712 57.4015 116.58 57.9603 116.262 58.4148L116.261 58.4107Z" fill="black"/>
<path opacity="0.25" d="M114.937 65.8529C113.801 66.2355 109.819 65.2838 109.819 65.2838C109.819 65.2838 112.42 62.1141 113.556 61.7315C114.089 61.5896 114.656 61.6565 115.143 61.9188C115.629 62.181 115.997 62.6188 116.173 63.1433C116.348 63.6679 116.319 64.2398 116.089 64.743C115.86 65.2463 115.448 65.6431 114.937 65.8529Z" fill="black"/>
<path opacity="0.25" d="M107.758 74.6486C106.586 74.4049 103.626 71.5674 103.626 71.5674C103.626 71.5674 107.467 70.1473 108.641 70.391C109.172 70.5393 109.626 70.8845 109.913 71.3564C110.2 71.8284 110.297 72.392 110.185 72.933C110.072 73.474 109.759 73.9521 109.309 74.2704C108.858 74.5887 108.304 74.7234 107.758 74.6472V74.6486Z" fill="black"/>
<path opacity="0.25" d="M100.831 80.0784C99.6348 80.0362 96.2395 77.742 96.2395 77.742C96.2395 77.742 99.7869 75.6956 100.983 75.7337C101.281 75.7244 101.577 75.7764 101.853 75.8865C102.13 75.9966 102.381 76.1624 102.591 76.3737C102.801 76.585 102.965 76.8373 103.074 77.1149C103.183 77.3925 103.233 77.6895 103.223 77.9876C103.213 78.2856 103.141 78.5784 103.013 78.8476C102.885 79.1169 102.704 79.357 102.479 79.553C102.255 79.749 101.993 79.8968 101.71 79.9872C101.426 80.0776 101.127 80.1086 100.831 80.0784Z" fill="black"/>
<path opacity="0.25" d="M106.112 62.6247C106.265 63.8161 108.858 66.9912 108.858 66.9912C108.858 66.9912 110.565 63.2605 110.413 62.0692C110.307 61.5264 109.999 61.0443 109.551 60.7208C109.104 60.3974 108.55 60.2567 108.003 60.3274C107.456 60.398 106.956 60.6748 106.604 61.1014C106.253 61.528 106.077 62.0726 106.112 62.6247Z" fill="black"/>
<path opacity="0.25" d="M98.0907 69.0772C98.5918 70.1664 102.014 72.4198 102.014 72.4198C102.014 72.4198 102.53 68.3474 102.029 67.2581C101.922 66.9801 101.76 66.727 101.552 66.5145C101.343 66.302 101.094 66.1345 100.819 66.0225C100.543 65.9104 100.248 65.8562 99.951 65.8631C99.6539 65.87 99.3614 65.9379 99.0916 66.0626C98.8217 66.1873 98.5803 66.3662 98.3821 66.5882C98.184 66.8102 98.0333 67.0706 97.9395 67.3532C97.8457 67.6359 97.8107 67.9348 97.8367 68.2316C97.8627 68.5283 97.9491 68.8166 98.0907 69.0785V69.0772Z" fill="black"/>
<path opacity="0.25" d="M91.1533 76.4213C91.463 77.5814 94.4576 80.3807 94.4576 80.3807C94.4576 80.3807 95.6528 76.4554 95.3418 75.2953C95.164 74.7721 94.7944 74.3362 94.308 74.0759C93.8215 73.8157 93.2546 73.7505 92.7221 73.8937C92.1895 74.0369 91.7311 74.3776 91.4399 74.847C91.1486 75.3163 91.0462 75.8791 91.1533 76.4213Z" fill="black"/>
</g>
<g opacity="0.1">
<path opacity="0.1" d="M89.3036 71.0268C89.3036 71.0268 89.7871 60.8261 95.3731 55.1361C97.7289 52.7638 99.2539 49.6895 99.7191 46.3745C99.9285 44.799 99.9935 43.2075 99.9133 41.62" stroke="#535461" stroke-width="2" stroke-miterlimit="10"/>
<path opacity="0.1" d="M103.428 38.0132C103.036 39.1474 99.8494 41.7248 99.8494 41.7248C99.8494 41.7248 98.9395 37.7232 99.332 36.5891C99.4098 36.3006 99.546 36.0312 99.7321 35.7978C99.9183 35.5643 100.15 35.3717 100.414 35.232C100.677 35.0923 100.967 35.0085 101.264 34.9857C101.561 34.9629 101.86 35.0017 102.142 35.0996C102.423 35.1976 102.682 35.3525 102.901 35.5549C103.121 35.7573 103.296 36.0028 103.417 36.2761C103.537 36.5494 103.601 36.8446 103.603 37.1435C103.605 37.4423 103.545 37.7384 103.428 38.0132Z" fill="#1E91C3"/>
<path opacity="0.1" d="M104.634 45.4691C103.683 46.2071 99.6172 46.6346 99.6172 46.6346C99.6172 46.6346 101.023 42.7787 101.967 42.0407C102.189 41.8428 102.449 41.6926 102.731 41.5995C103.013 41.5063 103.312 41.4722 103.608 41.4992C103.904 41.5262 104.191 41.6138 104.452 41.7565C104.712 41.8992 104.941 42.094 105.124 42.3289C105.307 42.5638 105.44 42.8338 105.514 43.1221C105.589 43.4105 105.603 43.7111 105.558 44.0054C105.512 44.2997 105.406 44.5814 105.247 44.8332C105.088 45.085 104.88 45.3014 104.634 45.4691Z" fill="#1E91C3"/>
<path opacity="0.1" d="M100.77 56.1601C99.5832 56.3194 95.8538 54.627 95.8538 54.627C95.8538 54.627 99.0087 52.01 100.2 51.8507C100.491 51.7921 100.792 51.7941 101.082 51.8564C101.373 51.9188 101.648 52.0403 101.89 52.2134C102.131 52.3865 102.335 52.6075 102.489 52.8627C102.642 53.118 102.742 53.4021 102.781 53.6974C102.821 53.9927 102.799 54.293 102.718 54.5798C102.637 54.8665 102.499 55.1335 102.311 55.3643C102.123 55.5952 101.889 55.7849 101.625 55.9217C101.361 56.0586 101.072 56.1397 100.776 56.1601H100.77Z" fill="#1E91C3"/>
<path opacity="0.1" d="M96.0317 63.5846C94.8882 63.9427 90.9265 62.9038 90.9265 62.9038C90.9265 62.9038 93.5939 59.7899 94.7374 59.4319C95.2741 59.3006 95.8404 59.3791 96.3214 59.6515C96.8023 59.9238 97.1617 60.3696 97.3266 60.8982C97.4914 61.4267 97.4493 61.9983 97.2087 62.4968C96.9682 62.9954 96.5474 63.3833 96.0317 63.5819V63.5846Z" fill="#1E91C3"/>
<path opacity="0.1" d="M95.24 45.3629C95.7832 46.4358 99.2763 48.5694 99.2763 48.5694C99.2763 48.5694 99.6525 44.4847 99.1147 43.4091C98.8357 42.9311 98.3855 42.5776 97.8557 42.4204C97.326 42.2633 96.7564 42.3144 96.2628 42.5632C95.7693 42.8121 95.3888 43.2401 95.1988 43.7602C95.0088 44.2803 95.0235 44.8534 95.24 45.3629Z" fill="#1E91C3"/>
<path opacity="0.1" d="M89.8074 54.1177C90.6413 54.9796 94.6152 55.9667 94.6152 55.9667C94.6152 55.9667 93.7555 51.9542 92.9216 51.0924C92.5127 50.7196 91.9775 50.517 91.4249 50.5258C90.8723 50.5346 90.3438 50.7542 89.947 51.1399C89.5502 51.5256 89.3149 52.0483 89.289 52.6018C89.263 53.1553 89.4484 53.6978 89.8074 54.1191V54.1177Z" fill="#1E91C3"/>
<path opacity="0.1" d="M85.6923 63.3518C86.3714 64.343 90.1198 65.9892 90.1198 65.9892C90.1198 65.9892 89.9487 61.8881 89.2723 60.8969C88.9302 60.4674 88.4387 60.1834 87.8965 60.1018C87.3542 60.0203 86.8013 60.1474 86.3486 60.4574C85.8958 60.7675 85.5767 61.2377 85.4553 61.7737C85.3338 62.3097 85.419 62.872 85.6937 63.3477L85.6923 63.3518Z" fill="#1E91C3"/>
</g>
<path opacity="0.1" d="M40.7085 105.624C46.0486 107.424 52.5635 106.329 58.6221 106.456C59.452 106.473 60.3293 106.525 60.9948 106.836C61.6603 107.146 61.9876 107.653 62.4439 108.081C64.1416 109.687 67.6197 110.203 70.6606 109.93C73.7014 109.658 76.4896 108.757 79.3526 108.071C84.3124 106.883 89.9826 106.344 94.8746 107.638C95.3241 107.756 95.7967 107.892 96.2775 107.846C97.3504 107.74 97.6696 106.879 98.4193 106.388C99.7774 105.5 102.715 105.741 103.309 104.571C103.658 103.891 102.855 103.183 101.982 102.714C98.6379 100.922 93.8546 100.627 89.4787 100.903C85.1029 101.18 80.8003 101.942 76.4014 101.945C70.9213 101.945 65.626 100.775 60.1989 100.296C56.4396 99.9639 52.3367 100.005 48.8124 100.977C45.0029 102.042 44.1608 104.416 40.7085 105.624Z" fill="#1E91C3"/>
<path d="M50.5916 25.1751H49.6409V38.6545H50.5916V25.1751Z" fill="#535461"/>
<path d="M50.5916 43.2838H49.6409V50.9085H50.5916V43.2838Z" fill="#535461"/>
<path d="M86.7041 11.9681H56.7167C53.1838 11.9681 50.3199 14.8392 50.3199 18.381V98.6855C50.3199 102.227 53.1838 105.098 56.7167 105.098H86.7041C90.2369 105.098 93.1009 102.227 93.1009 98.6855V18.381C93.1009 14.8392 90.2369 11.9681 86.7041 11.9681Z" fill="#535461"/>
<path d="M86.7041 16.325H56.7167C53.1838 16.325 50.3199 19.1962 50.3199 22.7379V94.7369C50.3199 98.2787 53.1838 101.15 56.7167 101.15H86.7041C90.2369 101.15 93.1009 98.2787 93.1009 94.7369V22.7379C93.1009 19.1962 90.2369 16.325 86.7041 16.325Z" fill="#1E91C3"/>
<path d="M74.8341 14.0104H68.7225C68.46 14.0104 68.2472 14.2237 68.2472 14.4869C68.2472 14.7501 68.46 14.9635 68.7225 14.9635H74.8341C75.0966 14.9635 75.3095 14.7501 75.3095 14.4869C75.3095 14.2237 75.0966 14.0104 74.8341 14.0104Z" fill="#EAEAF3"/>
<path d="M77.7541 15.2358C78.1291 15.2358 78.4331 14.931 78.4331 14.555C78.4331 14.179 78.1291 13.8742 77.7541 13.8742C77.379 13.8742 77.075 14.179 77.075 14.555C77.075 14.931 77.379 15.2358 77.7541 15.2358Z" fill="#EAEAF3"/>
<path d="M60.6145 53.9311V63.8705C60.6179 64.1821 60.5595 64.4914 60.4427 64.7802C60.3258 65.069 60.1529 65.3316 59.9339 65.5528C59.7149 65.7741 59.4542 65.9494 59.167 66.0687C58.8798 66.188 58.5718 66.2489 58.2609 66.2478C56.9517 66.2478 55.6805 65.1844 55.6805 63.8705V53.9311C55.6805 52.6349 56.9476 51.5716 58.2609 51.5716C58.8843 51.5741 59.4815 51.8235 59.9224 52.2655C60.3632 52.7074 60.612 53.3061 60.6145 53.9311ZM61.5394 67.4024C61.5387 67.736 61.6037 68.0666 61.7308 68.375C61.8578 68.6834 62.0443 68.9636 62.2797 69.1995C62.515 69.4355 62.7945 69.6225 63.1022 69.7498C63.4098 69.8772 63.7395 69.9424 64.0723 69.9417H65.7754L65.8012 75.185C65.8012 78.3506 70.5261 78.3261 70.5261 75.185V69.943H73.7096V75.1864C73.7096 78.3357 78.463 78.3438 78.463 75.1864V69.943H80.1919C80.5235 69.942 80.8516 69.8754 81.1575 69.7472C81.4634 69.619 81.7411 69.4317 81.9748 69.1959C82.2085 68.9601 82.3936 68.6805 82.5195 68.373C82.6453 68.0655 82.7096 67.7361 82.7085 67.4037V52.0045H61.5394V67.4024ZM82.7656 51.1767H61.443C61.443 47.5005 63.6336 44.3118 66.8863 42.6479L65.2566 39.6185C65.0176 39.1978 65.6246 38.9377 65.8297 39.2931L67.4907 42.3484C68.9522 41.7074 70.5301 41.3765 72.1253 41.3765C73.7205 41.3765 75.2985 41.7074 76.7599 42.3484L78.4114 39.3026C78.626 38.9336 79.2263 39.2087 78.9845 39.628L77.3548 42.6479C80.5749 44.3118 82.7656 47.5046 82.7656 51.1767ZM68.1548 46.4113C68.1548 46.1722 68.0601 45.943 67.8915 45.7739C67.7229 45.6049 67.4942 45.5099 67.2558 45.5099C67.0235 45.519 66.8038 45.6178 66.6427 45.7858C66.4816 45.9537 66.3916 46.1776 66.3916 46.4106C66.3916 46.6436 66.4816 46.8675 66.6427 47.0354C66.8038 47.2034 67.0235 47.3022 67.2558 47.3113C67.4935 47.3113 67.7216 47.2169 67.8901 47.0487C68.0586 46.8806 68.1538 46.6523 68.1548 46.414V46.4113ZM77.8614 46.4113C77.8587 46.2358 77.8041 46.065 77.7047 45.9206C77.6052 45.7762 77.4653 45.6645 77.3025 45.5998C77.1398 45.5351 76.9616 45.5202 76.7904 45.557C76.6192 45.5937 76.4628 45.6806 76.3408 45.8065C76.2188 45.9324 76.1368 46.0917 76.1051 46.2643C76.0734 46.4369 76.0935 46.6151 76.1627 46.7762C76.232 46.9374 76.3474 47.0744 76.4943 47.1699C76.6412 47.2654 76.813 47.315 76.9881 47.3126C77.222 47.3073 77.4445 47.2102 77.6078 47.0421C77.7711 46.8741 77.8621 46.6486 77.8614 46.414V46.4113ZM85.9748 51.5688C85.6655 51.568 85.359 51.6284 85.0731 51.7466C84.7871 51.8649 84.5273 52.0387 84.3085 52.2579C84.0898 52.4772 83.9165 52.7377 83.7985 53.0244C83.6805 53.3111 83.6203 53.6183 83.6212 53.9284V63.8678C83.6199 64.1788 83.6798 64.4871 83.7974 64.7749C83.9151 65.0628 84.0881 65.3245 84.3067 65.5453C84.5252 65.7661 84.7851 65.9415 85.0713 66.0616C85.3575 66.1816 85.6645 66.244 85.9748 66.2451C87.2935 66.2451 88.5552 65.1817 88.5552 63.8678V53.9284C88.5512 52.6104 87.284 51.5716 85.9748 51.5716V51.5688Z" fill="white"/>
<path d="M70.4881 77.5352H61.6603V77.9436H70.4881V77.5352Z" fill="#535461"/>
<path d="M79.5876 77.5352H73.7476V77.9436H79.5876V77.5352Z" fill="#535461"/>
<path d="M59.7589 77.5352H53.9189V77.9436H59.7589V77.5352Z" fill="#535461"/>
<path d="M88.8228 77.5352H82.9828V77.9436H88.8228V77.5352Z" fill="#535461"/>
</g>
<defs>
<clipPath id="clip0">
<rect width="149" height="110" fill="white"/>
</clipPath>
</defs>
</svg>
