<svg width="17" height="17" viewBox="0 0 17 17" fill="none" xmlns="http://www.w3.org/2000/svg">
<rect width="17" height="17" fill="white"/>
<path d="M10.9792 9.91667H10.4196L10.2213 9.72542C10.9154 8.91792 11.3333 7.86958 11.3333 6.72917C11.3333 4.18625 9.27208 2.125 6.72917 2.125C4.18625 2.125 2.125 4.18625 2.125 6.72917C2.125 9.27208 4.18625 11.3333 6.72917 11.3333C7.86958 11.3333 8.91792 10.9154 9.72542 10.2213L9.91667 10.4196V10.9792L13.4583 14.5138L14.5138 13.4583L10.9792 9.91667ZM6.72917 9.91667C4.96542 9.91667 3.54167 8.49292 3.54167 6.72917C3.54167 4.96542 4.96542 3.54167 6.72917 3.54167C8.49292 3.54167 9.91667 4.96542 9.91667 6.72917C9.91667 8.49292 8.49292 9.91667 6.72917 9.91667Z" fill="#1E91C3"/>
</svg>
