<svg width="46" height="48" viewBox="0 0 46 48" fill="none" xmlns="http://www.w3.org/2000/svg">
<rect width="46" height="48" fill="transparent"/>
<path d="M29.7083 28H28.1942L27.6575 27.46C29.5358 25.18 30.6667 22.22 30.6667 19C30.6667 11.82 25.0892 6 18.2083 6C11.3275 6 5.75 11.82 5.75 19C5.75 26.18 11.3275 32 18.2083 32C21.2942 32 24.1308 30.82 26.3158 28.86L26.8333 29.42V31L36.4167 40.98L39.2725 38L29.7083 28V28ZM18.2083 28C13.4358 28 9.58333 23.98 9.58333 19C9.58333 14.02 13.4358 10 18.2083 10C22.9808 10 26.8333 14.02 26.8333 19C26.8333 23.98 22.9808 28 18.2083 28Z" fill="#4FE38A"/>
</svg>
